<svg xmlns="http://www.w3.org/2000/svg" width="60" height="60" viewBox="0 0 60 60" fill="none"><g clip-path="url(#clip0_40000494_8671)"><path d="M20.0312 11.4297H21.0112" stroke="black" stroke-width="1.4" stroke-miterlimit="10" stroke-dasharray="2 2"></path><path d="M23 11.4297H37.99" stroke="black" stroke-width="1.4" stroke-miterlimit="10" stroke-dasharray="2 2"></path><path d="M38.9922 11.4297H39.9722" stroke="black" stroke-width="1.4" stroke-miterlimit="10" stroke-dasharray="2 2"></path><path d="M20.0312 48.5703H21.0112" stroke="black" stroke-width="1.4" stroke-miterlimit="10" stroke-dasharray="2 2"></path><path d="M23 48.5703H37.99" stroke="black" stroke-width="1.4" stroke-miterlimit="10" stroke-dasharray="2 2"></path><path d="M38.9922 48.5703H39.9722" stroke="black" stroke-width="1.4" stroke-miterlimit="10" stroke-dasharray="2 2"></path><path d="M11.0469 18.0703V19.0403" stroke="black" stroke-width="1.4" stroke-miterlimit="10" stroke-dasharray="2 2"></path><path d="M11.0469 21.0312V39.9612" stroke="black" stroke-width="1.4" stroke-miterlimit="10" stroke-dasharray="2 2"></path><path d="M11.0469 40.9609V41.9309" stroke="black" stroke-width="1.4" stroke-miterlimit="10" stroke-dasharray="2 2"></path><path d="M48.9297 18.0703V19.0403" stroke="black" stroke-width="1.4" stroke-miterlimit="10" stroke-dasharray="2 2"></path><path d="M48.9297 21.0312V39.9612" stroke="black" stroke-width="1.4" stroke-miterlimit="10" stroke-dasharray="2 2"></path><path d="M48.9297 40.9609V41.9309" stroke="black" stroke-width="1.4" stroke-miterlimit="10" stroke-dasharray="2 2"></path><path d="M19.6316 41.9297H2.50156C2.28065 41.9297 2.10156 42.1088 2.10156 42.3297V54.7997C2.10156 55.0206 2.28065 55.1997 2.50156 55.1997H19.6316C19.8525 55.1997 20.0316 55.0206 20.0316 54.7997V42.3297C20.0316 42.1088 19.8525 41.9297 19.6316 41.9297Z" stroke="black" stroke-width="1.4" stroke-linejoin="round"></path><path d="M5.99219 58.7383H16.1622" stroke="black" stroke-width="1.4" stroke-linejoin="round"></path><path d="M57.4987 41.9297H40.3687C40.1478 41.9297 39.9688 42.1088 39.9688 42.3297V54.7997C39.9688 55.0206 40.1478 55.1997 40.3687 55.1997H57.4987C57.7197 55.1997 57.8988 55.0206 57.8988 54.7997V42.3297C57.8988 42.1088 57.7197 41.9297 57.4987 41.9297Z" fill="#005EEB" stroke="black" stroke-width="1.4" stroke-linejoin="round"></path><path d="M43.8438 58.7383H54.0137" stroke="black" stroke-width="1.4" stroke-linejoin="round"></path><path d="M57.4987 4.80078H40.3687C40.1478 4.80078 39.9688 4.97987 39.9688 5.20078V17.6708C39.9688 17.8917 40.1478 18.0708 40.3687 18.0708H57.4987C57.7197 18.0708 57.8988 17.8917 57.8988 17.6708V5.20078C57.8988 4.97987 57.7197 4.80078 57.4987 4.80078Z" stroke="black" stroke-width="1.4" stroke-linejoin="round"></path><path d="M43.2578 1.26172H53.4278" stroke="black" stroke-width="1.4" stroke-linejoin="round"></path><path d="M19.6472 4.80078H2.51719C2.29627 4.80078 2.11719 4.97987 2.11719 5.20078V17.6708C2.11719 17.8917 2.29627 18.0708 2.51719 18.0708H19.6472C19.8681 18.0708 20.0472 17.8917 20.0472 17.6708V5.20078C20.0472 4.97987 19.8681 4.80078 19.6472 4.80078Z" fill="#005EEB" stroke="black" stroke-width="1.4" stroke-linejoin="round"></path><path d="M5.97656 1.26172H16.1466" stroke="black" stroke-width="1.4" stroke-linejoin="round"></path><path d="M38.5094 29.9309C38.3994 29.9309 38.2894 29.9309 38.1894 29.9509C38.2994 29.5009 38.3694 29.0309 38.3694 28.5409C38.3694 25.3209 35.7594 22.7109 32.5394 22.7109C30.9794 22.7109 29.5694 23.3309 28.5194 24.3209C27.9294 24.0709 27.2794 23.9209 26.5894 23.9209C23.8894 23.9209 21.6994 26.1109 21.6994 28.8109C21.6994 28.8209 21.6994 28.8309 21.6994 28.8509C19.5494 29.0309 17.8594 30.8309 17.8594 33.0209C17.8594 35.3309 19.7394 37.2109 22.0494 37.2109H38.5094C40.5194 37.2109 42.1494 35.5809 42.1494 33.5709C42.1494 31.5609 40.5194 29.9309 38.5094 29.9309Z" fill="#005EEB" stroke="black" stroke-width="1.4" stroke-linejoin="round"></path><path d="M32.9372 28.4688H33.6172V27.7888H32.9372V28.4688Z" stroke="black" stroke-width="1.4" stroke-miterlimit="10"></path><path d="M26.3669 28.4688H27.0469V27.7888H26.3669V28.4688Z" stroke="black" stroke-width="1.4" stroke-miterlimit="10"></path><path d="M32.9372 33.7773H33.6172V33.0973H32.9372V33.7773Z" stroke="black" stroke-width="1.4" stroke-miterlimit="10"></path><path d="M26.3669 33.7773H27.0469V33.0973H26.3669V33.7773Z" stroke="black" stroke-width="1.4" stroke-miterlimit="10"></path><path d="M14.0153 46.2578H14.6953V45.5778H14.0153V46.2578Z" stroke="black" stroke-width="1.4" stroke-miterlimit="10"></path><path d="M7.43719 46.2578H8.11719V45.5778H7.43719V46.2578Z" stroke="black" stroke-width="1.4" stroke-miterlimit="10"></path><path d="M14.0153 51.5586H14.6953V50.8786H14.0153V51.5586Z" stroke="black" stroke-width="1.4" stroke-miterlimit="10"></path><path d="M7.43719 51.5586H8.11719V50.8786H7.43719V51.5586Z" stroke="black" stroke-width="1.4" stroke-miterlimit="10"></path><path d="M51.8825 46.2578H52.5625V45.5778H51.8825V46.2578Z" stroke="black" stroke-width="1.4" stroke-miterlimit="10"></path><path d="M45.3122 46.2578H45.9922V45.5778H45.3122V46.2578Z" stroke="black" stroke-width="1.4" stroke-miterlimit="10"></path><path d="M51.8825 51.5586H52.5625V50.8786H51.8825V51.5586Z" stroke="black" stroke-width="1.4" stroke-miterlimit="10"></path><path d="M45.3122 51.5586H45.9922V50.8786H45.3122V51.5586Z" stroke="black" stroke-width="1.4" stroke-miterlimit="10"></path><path d="M51.8825 9.12109H52.5625V8.44109H51.8825V9.12109Z" stroke="black" stroke-width="1.4" stroke-miterlimit="10"></path><path d="M45.3122 9.12109H45.9922V8.44109H45.3122V9.12109Z" stroke="black" stroke-width="1.4" stroke-miterlimit="10"></path><path d="M51.8825 14.4297H52.5625V13.7497H51.8825V14.4297Z" stroke="black" stroke-width="1.4" stroke-miterlimit="10"></path><path d="M45.3122 14.4297H45.9922V13.7497H45.3122V14.4297Z" stroke="black" stroke-width="1.4" stroke-miterlimit="10"></path><path d="M14.0309 9.12109H14.7109V8.44109H14.0309V9.12109Z" stroke="black" stroke-width="1.4" stroke-miterlimit="10"></path><path d="M7.45281 9.12109H8.13281V8.44109H7.45281V9.12109Z" stroke="black" stroke-width="1.4" stroke-miterlimit="10"></path><path d="M14.0309 14.4297H14.7109V13.7497H14.0309V14.4297Z" stroke="black" stroke-width="1.4" stroke-miterlimit="10"></path><path d="M7.45281 14.4297H8.13281V13.7497H7.45281V14.4297Z" stroke="black" stroke-width="1.4" stroke-miterlimit="10"></path></g><defs><clipPath id="clip0_40000494_8671"><rect width="60" height="60" fill="white"></rect></clipPath></defs></svg>