<svg xmlns="http://www.w3.org/2000/svg" width="60" height="60" viewBox="0 0 60 60" fill="none"><g clip-path="url(#clip0_40000494_9093)"><path d="M35.5703 33.2486C35.7103 33.2486 35.8503 33.2086 36.0003 33.2086C37.0003 33.2086 37.9603 33.4186 38.8303 33.7886C40.3603 32.3286 42.4303 31.4286 44.7203 31.4286C44.7503 31.4286 44.7803 31.4286 44.8003 31.4286C44.9003 30.6486 44.9603 29.8586 44.9603 29.0586H35.8203C35.8203 30.4986 35.7303 31.8986 35.5703 33.2486Z" stroke="black" stroke-width="1.4" stroke-linecap="round" stroke-linejoin="round"></path><path d="M15.0484 29.0603C15.0484 25.7003 15.4984 22.5403 16.2884 19.7803C14.2884 18.7503 12.5184 17.4203 11.0984 15.8203C7.87844 19.3003 5.89844 23.9403 5.89844 29.0603H15.0384H15.0484Z" stroke="black" stroke-width="1.4" stroke-linecap="round" stroke-linejoin="round"></path><path d="M16.2916 19.7813C18.0516 13.6813 21.4816 9.53125 25.4316 9.53125C19.7616 9.53125 14.6716 11.9613 11.1016 15.8212C12.5116 17.4212 14.2916 18.7513 16.2916 19.7813Z" stroke="black" stroke-width="1.4" stroke-linecap="round" stroke-linejoin="round"></path><path d="M16.2891 19.7813C18.9691 21.1613 22.0791 21.9712 25.4291 21.9712V9.53125C21.4791 9.53125 18.0491 13.6813 16.2891 19.7813Z" stroke="black" stroke-width="1.4" stroke-linecap="round" stroke-linejoin="round"></path><path d="M25.4297 41.8406C26.3697 41.0606 27.5397 40.5306 28.8297 40.4306C28.8297 40.4106 28.8297 40.3906 28.8297 40.3806C28.8297 39.0106 29.2397 37.7306 29.9097 36.6406C28.4797 36.3206 26.9797 36.1406 25.4397 36.1406V41.8406H25.4297Z" stroke="black" stroke-width="1.4" stroke-linecap="round" stroke-linejoin="round"></path><path d="M48.6953 33.073C48.7353 32.813 48.7853 32.553 48.8153 32.293" stroke="black" stroke-width="1.4" stroke-linecap="round" stroke-linejoin="round" stroke-dasharray="2 3"></path><path d="M48.9925 30.7314C49.0325 30.1814 49.0625 29.6214 49.0625 29.0614C49.0625 16.0114 38.4825 5.44141 25.4425 5.44141C12.4025 5.44141 1.8125 16.0214 1.8125 29.0614C1.8125 42.1014 12.3925 52.6814 25.4325 52.6814H37.0025" stroke="black" stroke-width="1.4" stroke-linecap="round" stroke-linejoin="round" stroke-dasharray="2 3"></path><path d="M37.7891 52.6797H38.5791" stroke="black" stroke-width="1.4" stroke-linecap="round" stroke-linejoin="round" stroke-dasharray="2 3"></path><path d="M53.4731 42.0019C53.3131 42.0019 53.1531 42.0119 53.0031 42.0219C53.1631 41.3619 53.2631 40.6719 53.2631 39.9619C53.2631 36.6719 51.4031 33.8319 48.6831 32.4019C47.4931 31.7819 46.1531 31.4219 44.7131 31.4219C42.4231 31.4219 40.3531 32.3219 38.8231 33.7819C37.9531 33.4119 37.0031 33.2019 35.9931 33.2019C32.0331 33.2019 28.8231 36.4119 28.8231 40.3719C28.8231 40.3919 28.8231 40.4119 28.8231 40.4219C25.6731 40.6819 23.2031 43.3219 23.2031 46.5319C23.2031 48.8919 24.5531 50.9219 26.5031 51.9419C27.3531 52.3919 27.7831 52.6619 28.8131 52.6619H53.4631C56.4131 52.6619 58.8031 50.2719 58.8031 47.3219C58.8031 44.3719 56.4131 41.9819 53.4631 41.9819L53.4731 42.0019Z" fill="#005EEB" stroke="black" stroke-width="1.4" stroke-linecap="round" stroke-linejoin="round"></path><path d="M52.8906 55.9797V52.6797" stroke="black" stroke-width="1.4" stroke-linecap="round" stroke-linejoin="round"></path><path d="M48.0703 55.9797V52.6797" stroke="black" stroke-width="1.4" stroke-linecap="round" stroke-linejoin="round"></path><path d="M43.2578 55.9797V52.6797" stroke="black" stroke-width="1.4" stroke-linecap="round" stroke-linejoin="round"></path><path d="M38.4453 55.9797V52.6797" stroke="black" stroke-width="1.4" stroke-linecap="round" stroke-linejoin="round"></path><path d="M33.6406 55.9797V52.6797" stroke="black" stroke-width="1.4" stroke-linecap="round" stroke-linejoin="round"></path><path d="M28.8281 55.9797V52.6797" stroke="black" stroke-width="1.4" stroke-linecap="round" stroke-linejoin="round"></path><path d="M37.6844 44.168H38.2344V43.618H37.6844V44.168Z" stroke="black" stroke-width="1.4" stroke-linecap="round" stroke-linejoin="round"></path><path d="M43.0359 44.168H43.5859V43.618H43.0359V44.168Z" stroke="black" stroke-width="1.4" stroke-linecap="round" stroke-linejoin="round"></path><path d="M32.3406 44.168H32.8906V43.618H32.3406V44.168Z" stroke="black" stroke-width="1.4" stroke-linecap="round" stroke-linejoin="round"></path><path d="M48.3719 44.168H48.9219V43.618H48.3719V44.168Z" stroke="black" stroke-width="1.4" stroke-linecap="round" stroke-linejoin="round"></path><path d="M37.6844 39.8555H38.2344V39.3055H37.6844V39.8555Z" stroke="black" stroke-width="1.4" stroke-linecap="round" stroke-linejoin="round"></path><path d="M43.0359 39.8555H43.5859V39.3055H43.0359V39.8555Z" stroke="black" stroke-width="1.4" stroke-linecap="round" stroke-linejoin="round"></path><path d="M32.3406 39.8555H32.8906V39.3055H32.3406V39.8555Z" stroke="black" stroke-width="1.4" stroke-linecap="round" stroke-linejoin="round"></path><path d="M48.3719 39.8555H48.9219V39.3055H48.3719V39.8555Z" stroke="black" stroke-width="1.4" stroke-linecap="round" stroke-linejoin="round"></path><path d="M37.6844 48.4766H38.2344V47.9266H37.6844V48.4766Z" stroke="black" stroke-width="1.4" stroke-linecap="round" stroke-linejoin="round"></path><path d="M43.0359 48.4766H43.5859V47.9266H43.0359V48.4766Z" stroke="black" stroke-width="1.4" stroke-linecap="round" stroke-linejoin="round"></path><path d="M32.3406 48.4766H32.8906V47.9266H32.3406V48.4766Z" stroke="black" stroke-width="1.4" stroke-linecap="round" stroke-linejoin="round"></path><path d="M48.3719 48.4766H48.9219V47.9266H48.3719V48.4766Z" stroke="black" stroke-width="1.4" stroke-linecap="round" stroke-linejoin="round"></path><path d="M22.7869 29.0612C22.7869 27.6012 23.9669 26.4212 25.4269 26.4212V21.9712C22.0869 21.9712 18.9769 21.1612 16.2869 19.7812C15.4969 22.5412 15.0469 25.7012 15.0469 29.0612H22.7969H22.7869Z" stroke="black" stroke-width="1.4" stroke-linecap="round" stroke-linejoin="round"></path><path d="M28.0697 29.0586C28.0697 30.5186 26.8897 31.6986 25.4297 31.6986V36.1486C26.9797 36.1486 28.4697 36.3286 29.8997 36.6486C31.0897 34.7186 33.1597 33.4086 35.5597 33.2586C35.7197 31.9086 35.8097 30.5086 35.8097 29.0686H28.0597L28.0697 29.0586Z" stroke="black" stroke-width="1.4" stroke-linecap="round" stroke-linejoin="round"></path><path d="M28.0691 29.0619C28.0691 27.6038 26.8871 26.4219 25.4291 26.4219C23.971 26.4219 22.7891 27.6038 22.7891 29.0619C22.7891 30.5199 23.971 31.7019 25.4291 31.7019C26.8871 31.7019 28.0691 30.5199 28.0691 29.0619Z" fill="#005EEB" stroke="black" stroke-width="1.4" stroke-linecap="round" stroke-linejoin="round"></path><path d="M14.0519 39.6986C13.8019 39.2986 13.6619 38.8286 13.6619 38.3286C13.6619 37.0786 14.5319 36.0386 15.7019 35.7686C15.2919 33.6686 15.0619 31.4186 15.0619 29.0586H7.84188H5.92188C5.92188 34.1686 7.90187 38.8186 11.1219 42.2986C11.9819 41.3286 12.9819 40.4786 14.0719 39.7086L14.0519 39.6986Z" stroke="black" stroke-width="1.4" stroke-linecap="round" stroke-linejoin="round"></path><path d="M17.1616 40.8092C16.8916 40.9092 16.6016 40.9692 16.2916 40.9692C15.3416 40.9692 14.5116 40.4592 14.0516 39.6992C12.9616 40.4692 11.9616 41.3192 11.1016 42.2892C14.2716 45.7192 18.6416 48.0092 23.5516 48.4792C23.5216 48.3892 23.4916 48.3092 23.4716 48.2192C20.9016 47.2992 18.6816 44.5792 17.1616 40.8092Z" stroke="black" stroke-width="1.4" stroke-linecap="round" stroke-linejoin="round"></path><path d="M25.4263 36.1406C23.0463 36.1406 20.7962 36.5706 18.7162 37.3006C18.8462 37.6206 18.9263 37.9606 18.9263 38.3306C18.9263 39.4806 18.1862 40.4506 17.1562 40.8106C18.6762 44.5806 20.8962 47.3006 23.4662 48.2206C23.3162 47.6806 23.2062 47.1306 23.2062 46.5406C23.2062 44.6406 24.0763 42.9706 25.4263 41.8406V36.1406Z" stroke="black" stroke-width="1.4" stroke-linecap="round" stroke-linejoin="round"></path><path d="M15.6891 35.7708C15.8791 35.7208 16.0791 35.6908 16.2891 35.6908C17.3791 35.6908 18.3191 36.3508 18.7191 37.3008C20.7891 36.5708 23.0491 36.1408 25.4291 36.1408V31.6908C23.9691 31.6908 22.7891 30.5108 22.7891 29.0508H15.0391C15.0391 31.4108 15.2691 33.6708 15.6791 35.7608L15.6891 35.7708Z" stroke="black" stroke-width="1.4" stroke-linecap="round" stroke-linejoin="round"></path><path d="M16.2884 35.6914C16.0784 35.6914 15.8784 35.7214 15.6884 35.7714C14.5184 36.0414 13.6484 37.0814 13.6484 38.3314C13.6484 38.8314 13.7984 39.3014 14.0384 39.7014C14.4984 40.4614 15.3284 40.9714 16.2784 40.9714C16.5884 40.9714 16.8684 40.9114 17.1484 40.8114C18.1784 40.4514 18.9184 39.4814 18.9184 38.3314C18.9184 37.9614 18.8484 37.6214 18.7084 37.3014C18.3084 36.3514 17.3684 35.6914 16.2784 35.6914H16.2884Z" fill="#005EEB" stroke="black" stroke-width="1.4" stroke-linecap="round" stroke-linejoin="round"></path><path d="M36.9419 18.3186C37.2219 18.7386 37.3819 19.2386 37.3819 19.7786C37.3819 21.0886 36.4219 22.1686 35.1719 22.3686C35.5819 24.4586 35.8119 26.6986 35.8119 29.0486H44.9519C44.9519 23.9386 42.9719 19.2886 39.7519 15.8086C38.9319 16.7386 37.9719 17.5686 36.9319 18.3086L36.9419 18.3186Z" stroke="black" stroke-width="1.4" stroke-linecap="round" stroke-linejoin="round"></path><path d="M33.7397 17.3413C34.0497 17.2113 34.3897 17.1412 34.7497 17.1412C35.6697 17.1412 36.4697 17.6112 36.9397 18.3212C37.9797 17.5812 38.9297 16.7512 39.7597 15.8212C36.1897 11.9613 31.0997 9.53125 25.4297 9.53125C28.8297 9.53125 31.8397 12.6013 33.7297 17.3513L33.7397 17.3413Z" stroke="black" stroke-width="1.4" stroke-linecap="round" stroke-linejoin="round"></path><path d="M33.7375 17.3395C31.8475 12.5995 28.8275 9.51953 25.4375 9.51953V21.9595C27.8775 21.9595 30.1875 21.5195 32.3075 20.7495C32.1875 20.4495 32.1175 20.1195 32.1175 19.7695C32.1175 18.6695 32.7875 17.7295 33.7475 17.3295L33.7375 17.3395Z" stroke="black" stroke-width="1.4" stroke-linecap="round" stroke-linejoin="round"></path><path d="M32.2997 20.7617C30.1797 21.5317 27.8697 21.9717 25.4297 21.9717V26.4217C26.8897 26.4217 28.0697 27.6017 28.0697 29.0617H35.8197C35.8197 26.7117 35.5897 24.4717 35.1797 22.3817C35.0397 22.4017 34.8997 22.4217 34.7497 22.4217C33.6397 22.4217 32.6897 21.7317 32.2997 20.7617Z" stroke="black" stroke-width="1.4" stroke-linecap="round" stroke-linejoin="round"></path><path d="M37.3794 19.7806C37.3794 19.2406 37.2194 18.7406 36.9394 18.3206C36.4694 17.6106 35.6594 17.1406 34.7494 17.1406C34.3894 17.1406 34.0494 17.2106 33.7394 17.3406C32.7894 17.7406 32.1094 18.6806 32.1094 19.7806C32.1094 20.1306 32.1794 20.4606 32.2994 20.7606C32.6894 21.7306 33.6394 22.4206 34.7494 22.4206C34.8994 22.4206 35.0394 22.4006 35.1794 22.3806C36.4294 22.1706 37.3894 21.0906 37.3894 19.7906L37.3794 19.7806Z" fill="#005EEB" stroke="black" stroke-width="1.4" stroke-linecap="round" stroke-linejoin="round"></path></g><defs><clipPath id="clip0_40000494_9093"><rect width="60" height="60" fill="white"></rect></clipPath></defs></svg>