<svg xmlns="http://www.w3.org/2000/svg" width="60" height="60" viewBox="0 0 60 60" fill="none"><g clip-path="url(#clip0_40000494_8460)"><path d="M34.3075 25.6914H25.6875V34.3114H34.3075V25.6914Z" fill="#005EEB" stroke="black" stroke-width="1.4" stroke-miterlimit="10"></path><path d="M50.5169 9.06078H9.47687C9.23687 9.06078 9.04688 9.25078 9.04688 9.49078V50.5208C9.04688 50.7608 9.23687 50.9508 9.47687 50.9508H50.5069C50.7469 50.9508 50.9369 50.7608 50.9369 50.5208V9.48078C50.9369 9.24078 50.7469 9.05078 50.5069 9.05078L50.5169 9.06078ZM41.3369 41.1108C41.3369 41.2408 41.2369 41.3408 41.1069 41.3408H18.8769C18.7469 41.3408 18.6469 41.2408 18.6469 41.1108V18.8808C18.6469 18.7508 18.7469 18.6508 18.8769 18.6508H41.1069C41.2369 18.6508 41.3369 18.7508 41.3369 18.8808V41.1108Z" fill="#005EEB" stroke="black" stroke-width="1.4" stroke-miterlimit="10"></path><path d="M41.1084 18.6602H18.8784C18.7484 18.6602 18.6484 18.7602 18.6484 18.8902V41.1202C18.6484 41.2502 18.7484 41.3502 18.8784 41.3502H41.1084C41.2384 41.3502 41.3384 41.2502 41.3384 41.1202V18.8902C41.3384 18.7602 41.2384 18.6602 41.1084 18.6602ZM34.3084 34.3102H25.6884V25.6902H34.3084V34.3102Z" stroke="black" stroke-width="1.4" stroke-miterlimit="10"></path><path d="M14.3581 13.3281H13.3281V14.3581" stroke="black" stroke-width="1.4" stroke-miterlimit="10" stroke-dasharray="2 3"></path><path d="M13.3281 16.4375V44.5975" stroke="black" stroke-width="1.4" stroke-miterlimit="10" stroke-dasharray="2 3"></path><path d="M13.3281 45.6367V46.6667H14.3581" stroke="black" stroke-width="1.4" stroke-miterlimit="10" stroke-dasharray="2 3"></path><path d="M16.4375 46.668H44.5975" stroke="black" stroke-width="1.4" stroke-miterlimit="10" stroke-dasharray="2 3"></path><path d="M45.6406 46.6667H46.6706V45.6367" stroke="black" stroke-width="1.4" stroke-miterlimit="10" stroke-dasharray="2 3"></path><path d="M46.6719 43.5584V15.3984" stroke="black" stroke-width="1.4" stroke-miterlimit="10" stroke-dasharray="2 3"></path><path d="M46.6706 14.3581V13.3281H45.6406" stroke="black" stroke-width="1.4" stroke-miterlimit="10" stroke-dasharray="2 3"></path><path d="M43.5584 13.3281H15.3984" stroke="black" stroke-width="1.4" stroke-miterlimit="10" stroke-dasharray="2 3"></path><path d="M58.2388 27.1602H50.9688" stroke="black" stroke-width="1.4" stroke-miterlimit="10"></path><path d="M58.2388 32.8398H50.9688" stroke="black" stroke-width="1.4" stroke-miterlimit="10"></path><path d="M50.9688 22.4109H55.5387L58.2388 19.7109" stroke="black" stroke-width="1.4" stroke-miterlimit="10"></path><path d="M50.9688 15.4991H55.5387L58.2388 12.7891" stroke="black" stroke-width="1.4" stroke-miterlimit="10"></path><path d="M50.9688 37.5898H55.5387L58.2388 40.2898" stroke="black" stroke-width="1.4" stroke-miterlimit="10"></path><path d="M50.9688 44.5H55.5387L58.2388 47.21" stroke="black" stroke-width="1.4" stroke-miterlimit="10"></path><path d="M1.75781 32.8398H9.02781" stroke="black" stroke-width="1.4" stroke-miterlimit="10"></path><path d="M1.75781 27.1602H9.02781" stroke="black" stroke-width="1.4" stroke-miterlimit="10"></path><path d="M9.02781 37.5898H4.45781L1.75781 40.2898" stroke="black" stroke-width="1.4" stroke-miterlimit="10"></path><path d="M9.02781 44.5H4.45781L1.75781 47.21" stroke="black" stroke-width="1.4" stroke-miterlimit="10"></path><path d="M9.02781 22.4109H4.45781L1.75781 19.7109" stroke="black" stroke-width="1.4" stroke-miterlimit="10"></path><path d="M9.02781 15.4991H4.45781L1.75781 12.7891" stroke="black" stroke-width="1.4" stroke-miterlimit="10"></path><path d="M32.8359 58.2388V50.9688" stroke="black" stroke-width="1.4" stroke-miterlimit="10"></path><path d="M27.1562 58.2388V50.9688" stroke="black" stroke-width="1.4" stroke-miterlimit="10"></path><path d="M37.5859 50.9688V55.5387L40.2859 58.2388" stroke="black" stroke-width="1.4" stroke-miterlimit="10"></path><path d="M44.5 50.9688V55.5387L47.21 58.2388" stroke="black" stroke-width="1.4" stroke-miterlimit="10"></path><path d="M22.4109 50.9688V55.5387L19.7109 58.2388" stroke="black" stroke-width="1.4" stroke-miterlimit="10"></path><path d="M15.4991 50.9688V55.5387L12.7891 58.2388" stroke="black" stroke-width="1.4" stroke-miterlimit="10"></path><path d="M27.1562 1.76172V9.03172" stroke="black" stroke-width="1.4" stroke-miterlimit="10"></path><path d="M32.8359 1.76172V9.03172" stroke="black" stroke-width="1.4" stroke-miterlimit="10"></path><path d="M22.4109 9.03172V4.46172L19.7109 1.76172" stroke="black" stroke-width="1.4" stroke-miterlimit="10"></path><path d="M15.4991 9.03172V4.46172L12.7891 1.76172" stroke="black" stroke-width="1.4" stroke-miterlimit="10"></path><path d="M37.5859 9.03172V4.46172L40.2859 1.76172" stroke="black" stroke-width="1.4" stroke-miterlimit="10"></path><path d="M44.5 9.03172V4.46172L47.21 1.76172" stroke="black" stroke-width="1.4" stroke-miterlimit="10"></path><path d="M18.3797 22.2891H15.9297" stroke="black" stroke-width="1.4" stroke-miterlimit="10"></path><path d="M18.3797 25.3789H15.9297" stroke="black" stroke-width="1.4" stroke-miterlimit="10"></path><path d="M18.3797 28.4609H15.9297" stroke="black" stroke-width="1.4" stroke-miterlimit="10"></path><path d="M18.3797 31.5391H15.9297" stroke="black" stroke-width="1.4" stroke-miterlimit="10"></path><path d="M18.3797 34.6172H15.9297" stroke="black" stroke-width="1.4" stroke-miterlimit="10"></path><path d="M18.3797 37.7109H15.9297" stroke="black" stroke-width="1.4" stroke-miterlimit="10"></path><path d="M44.0672 22.2891H41.6172" stroke="black" stroke-width="1.4" stroke-miterlimit="10"></path><path d="M44.0672 25.3789H41.6172" stroke="black" stroke-width="1.4" stroke-miterlimit="10"></path><path d="M44.0672 28.4609H41.6172" stroke="black" stroke-width="1.4" stroke-miterlimit="10"></path><path d="M44.0672 31.5391H41.6172" stroke="black" stroke-width="1.4" stroke-miterlimit="10"></path><path d="M44.0672 34.6172H41.6172" stroke="black" stroke-width="1.4" stroke-miterlimit="10"></path><path d="M44.0672 37.7109H41.6172" stroke="black" stroke-width="1.4" stroke-miterlimit="10"></path><path d="M37.7109 18.4886V16.0586" stroke="black" stroke-width="1.4" stroke-miterlimit="10"></path><path d="M34.6172 18.4886V16.0586" stroke="black" stroke-width="1.4" stroke-miterlimit="10"></path><path d="M31.5391 18.4886V16.0586" stroke="black" stroke-width="1.4" stroke-miterlimit="10"></path><path d="M28.4609 18.4886V16.0586" stroke="black" stroke-width="1.4" stroke-miterlimit="10"></path><path d="M25.3828 18.4886V16.0586" stroke="black" stroke-width="1.4" stroke-miterlimit="10"></path><path d="M22.2891 18.4886V16.0586" stroke="black" stroke-width="1.4" stroke-miterlimit="10"></path><path d="M37.7109 43.9417V41.5117" stroke="black" stroke-width="1.4" stroke-miterlimit="10"></path><path d="M34.6172 43.9417V41.5117" stroke="black" stroke-width="1.4" stroke-miterlimit="10"></path><path d="M31.5391 43.9417V41.5117" stroke="black" stroke-width="1.4" stroke-miterlimit="10"></path><path d="M28.4609 43.9417V41.5117" stroke="black" stroke-width="1.4" stroke-miterlimit="10"></path><path d="M25.3828 43.9417V41.5117" stroke="black" stroke-width="1.4" stroke-miterlimit="10"></path><path d="M22.2891 43.9417V41.5117" stroke="black" stroke-width="1.4" stroke-miterlimit="10"></path><path d="M52.2422 58.4783H58.4822V52.2383" stroke="black" stroke-width="1.4" stroke-miterlimit="10"></path><path d="M7.76344 1.51953H1.52344V7.75953" stroke="black" stroke-width="1.4" stroke-miterlimit="10"></path><path d="M58.4822 7.75953V1.51953H52.2422" stroke="black" stroke-width="1.4" stroke-miterlimit="10"></path><path d="M1.52344 52.2383V58.4783H7.76344" stroke="black" stroke-width="1.4" stroke-miterlimit="10"></path></g><defs><clipPath id="clip0_40000494_8460"><rect width="60" height="60" fill="white"></rect></clipPath></defs></svg>