<svg xmlns="http://www.w3.org/2000/svg" width="65" height="123" viewBox="0 0 65 123" fill="none"><g clip-path="url(#clip0_3197_1002)"><path fill-rule="evenodd" clip-rule="evenodd" d="M2.27976 122.806C17.7741 119.836 29.9881 111.85 38.7565 98.9112C47.1742 86.5886 50.9808 70.9053 48.1749 54.8109C45.369 38.7062 36.487 25.2325 24.3866 16.4556C22.0139 14.729 19.5175 13.1874 16.9179 11.841C16.9695 11.8308 17.0211 11.8102 17.0727 11.7999C14.7516 2.65303 11.0173 5.23266 2.0425 3.20801C2.26944 6.7126 9.35642 13.1257 15.7832 12.1082C18.6407 13.5265 21.364 15.1812 23.9533 17.062C35.899 25.7258 44.6675 39.0453 47.4424 54.9445C50.2174 70.8436 46.4624 86.3214 38.1479 98.5001C29.8333 110.669 16.9695 119.528 1.51639 122.2C-0.36109 122.58 -0.907829 123.371 2.27976 122.816V122.806Z" fill="#2A2A2A"></path><path fill-rule="evenodd" clip-rule="evenodd" d="M23.0146 12.4469C16.3299 9.54869 18.7542 7.041 18.3209 0.000976562C21.1474 0.648453 25.5213 7.62681 23.0146 12.4469Z" fill="#2A2A2A"></path><path fill-rule="evenodd" clip-rule="evenodd" d="M29.6374 18.6849C23.7471 14.3992 26.6768 12.4876 27.8012 5.51953C30.4111 6.77337 33.1448 14.5328 29.6374 18.6849Z" fill="#2A2A2A"></path><path fill-rule="evenodd" clip-rule="evenodd" d="M24.335 19.8875C19.7136 22.4979 12.7297 18.5103 11.9973 15.797C18.8986 15.9512 21.2609 13.5052 24.335 19.8875Z" fill="#2A2A2A"></path><path fill-rule="evenodd" clip-rule="evenodd" d="M32.598 27.8523C27.7496 30.0106 21.1887 25.3755 20.7039 22.6006C27.5639 23.4125 30.1532 21.2029 32.598 27.8523Z" fill="#2A2A2A"></path><path fill-rule="evenodd" clip-rule="evenodd" d="M36.8688 25.6427C30.7309 21.1721 33.774 19.1782 34.9604 11.9121C37.6837 13.2173 40.5309 21.3057 36.8688 25.6427Z" fill="#2A2A2A"></path><path fill-rule="evenodd" clip-rule="evenodd" d="M41.9338 33.2482C37.7765 26.907 41.3355 26.1157 45.0182 19.7334C47.102 21.9122 46.8957 30.4836 41.9338 33.2482Z" fill="#2A2A2A"></path><path fill-rule="evenodd" clip-rule="evenodd" d="M40.1079 38.2948C34.3413 39.5075 28.3066 32.9505 28.4407 29.8262C35.6824 32.303 39.0041 30.5148 40.1079 38.2948Z" fill="#2A2A2A"></path><path fill-rule="evenodd" clip-rule="evenodd" d="M47.2981 42.4159C42.5837 35.2217 46.6172 34.3173 50.7951 27.082C53.1575 29.5589 52.9305 39.2813 47.2981 42.4159Z" fill="#2A2A2A"></path><path fill-rule="evenodd" clip-rule="evenodd" d="M44.6366 48.2941C38.7669 48.8697 33.5059 41.6858 33.9804 38.6025C40.9023 41.8605 44.4097 40.4422 44.6366 48.2941Z" fill="#2A2A2A"></path><path fill-rule="evenodd" clip-rule="evenodd" d="M50.3826 52.0564C46.9268 43.8036 51.2285 43.6392 56.8919 37.0205C58.8416 40.001 56.7474 49.9084 50.3826 52.0564Z" fill="#2A2A2A"></path><path fill-rule="evenodd" clip-rule="evenodd" d="M51.7648 62.1385C49.5676 53.043 54.0446 53.5877 60.9872 47.6885C62.5036 51.0903 58.6868 60.9772 51.7648 62.1385Z" fill="#2A2A2A"></path><path fill-rule="evenodd" clip-rule="evenodd" d="M46.906 61.9738C39.5817 61.5525 34.496 51.7067 35.6824 48.0068C43.5637 53.3511 48.1542 52.272 46.906 61.9738Z" fill="#2A2A2A"></path><path fill-rule="evenodd" clip-rule="evenodd" d="M50.8672 73.7619C50.1967 63.8339 54.7872 65.2008 63.1224 60.2471C64.1024 64.0805 58.3462 73.7721 50.8672 73.7619Z" fill="#2A2A2A"></path><path fill-rule="evenodd" clip-rule="evenodd" d="M48.2161 82.724C51.7544 73.4229 55.3546 76.5678 65.0102 75.5195C64.2984 79.4147 55.0039 85.8278 48.2161 82.724Z" fill="#2A2A2A"></path><path fill-rule="evenodd" clip-rule="evenodd" d="M46.1633 75.1805C38.9113 73.7109 35.2595 63.1765 36.9719 59.6514C44.0692 66.1056 48.7938 65.6842 46.1633 75.1805Z" fill="#2A2A2A"></path><path fill-rule="evenodd" clip-rule="evenodd" d="M43.636 91.9218C49.0621 83.5765 51.9196 87.3997 61.5752 88.4069C60.0588 92.0657 49.6088 96.3822 43.636 91.9218Z" fill="#2A2A2A"></path><path fill-rule="evenodd" clip-rule="evenodd" d="M41.1189 89.0034C35.0325 85.4269 35.0325 74.7795 37.6837 72.1279C42.0679 80.1546 46.4625 81.244 41.1189 89.0034Z" fill="#2A2A2A"></path><path fill-rule="evenodd" clip-rule="evenodd" d="M38.6946 101.83C44.1207 93.4745 46.9782 97.308 56.6338 98.3151C55.1174 101.974 44.6778 106.29 38.6946 101.83Z" fill="#2A2A2A"></path><path fill-rule="evenodd" clip-rule="evenodd" d="M31.845 102.539C27.1307 96.6394 31.2157 85.9818 34.8882 84.3477C36.1983 94.0495 40.1802 96.8141 31.845 102.539Z" fill="#2A2A2A"></path><path fill-rule="evenodd" clip-rule="evenodd" d="M30.4523 109.425C38.2923 102.2 40.2317 106.927 49.9595 110.514C47.4115 113.906 35.4554 115.632 30.4523 109.425Z" fill="#2A2A2A"></path><path fill-rule="evenodd" clip-rule="evenodd" d="M21.7767 116.012C30.6896 110.586 31.6387 115.478 40.2936 120.781C37.1989 123.546 25.3873 122.919 21.7767 116.012Z" fill="#2A2A2A"></path><path fill-rule="evenodd" clip-rule="evenodd" d="M18.7748 113.73C15.7213 106.022 23.4685 96.115 27.8527 95.5703C26.0887 106.197 29.3794 110.38 18.7748 113.73Z" fill="#2A2A2A"></path></g><defs><clipPath id="clip0_3197_1002"><rect width="65" height="123" fill="white" transform="translate(0 0.000976562)"></rect></clipPath></defs></svg>