<svg xmlns="http://www.w3.org/2000/svg" width="24" height="24" viewBox="0 0 24 24" fill="none"><path fill-rule="evenodd" clip-rule="evenodd" d="M12 21C16.9706 21 21 16.9706 21 12C21 7.02943 16.9706 3 12 3C7.02943 3 3 7.02943 3 12C3 16.9706 7.02943 21 12 21Z" stroke="white" stroke-linecap="round" stroke-linejoin="round"></path><path d="M3 12H21" stroke="white" stroke-linecap="round" stroke-linejoin="round"></path><path fill-rule="evenodd" clip-rule="evenodd" d="M11.9999 21C13.9881 21 15.5999 16.9706 15.5999 12C15.5999 7.02943 13.9881 3 11.9999 3C10.0117 3 8.3999 7.02943 8.3999 12C8.3999 16.9706 10.0117 21 11.9999 21Z" stroke="white" stroke-linecap="round" stroke-linejoin="round"></path><path d="M5.63599 5.76416C7.26467 7.39285 9.51467 8.40021 11.9999 8.40021C14.4852 8.40021 16.7352 7.39285 18.3639 5.76416" stroke="white" stroke-linecap="round" stroke-linejoin="round"></path><path d="M18.3639 18.2362C16.7352 16.6075 14.4852 15.6001 11.9999 15.6001C9.51467 15.6001 7.26467 16.6075 5.63599 18.2362" stroke="white" stroke-linecap="round" stroke-linejoin="round"></path></svg>