<svg xmlns="http://www.w3.org/2000/svg" width="227" height="100" viewBox="0 0 227 100" fill="none"><rect width="226.667" height="100" transform="translate(0 0.000488281)" fill="white"></rect><g clip-path="url(#clip0_3197_749)"><path d="M76.9998 38V63H149V38H76.9998Z" fill="#252525"></path><mask id="mask0_3197_749" style="mask-type:luminance" maskUnits="userSpaceOnUse" x="77" y="38" width="73" height="25"><path d="M77.0004 38V63H149V38H77.0004Z" fill="white"></path></mask><g mask="url(#mask0_3197_749)"><path d="M108.366 46.4253C107.302 46.4253 106.093 46.9389 105.353 47.9668L105.354 47.965L105.353 47.9657L105.354 46.5865H102.817V56.2086H105.353V50.7339C105.353 49.7484 106.087 48.7009 107.445 48.7009C108.495 48.7009 109.58 49.4612 109.58 50.7339V56.2086H112.117V50.2439C112.117 48.0312 110.597 46.4253 108.366 46.4253Z" fill="white"></path><path d="M130.145 46.5874L127.852 53.1419L125.559 46.5874H122.661L126.462 56.2058H129.241L133.042 46.5874H130.145Z" fill="white"></path><path d="M95.2447 49.4862C95.6766 48.8821 96.3648 48.5275 97.1958 48.5275C98.1102 48.5275 98.8036 49.0713 99.1617 49.8735L94.7304 51.7887C94.6092 50.8061 94.8506 50.0374 95.2447 49.4862ZM100.118 53.2507C99.0503 54.0736 98.4403 54.2702 97.4669 54.2702C96.5907 54.2702 95.905 53.9871 95.4211 53.49L101.906 50.6876C101.764 49.6434 101.384 48.7109 100.799 48.0014C99.9463 46.9705 98.6852 46.4253 97.1502 46.4253C94.3607 46.4253 92.2577 48.5688 92.2577 51.3992C92.2577 54.3033 94.3657 56.3728 97.4294 56.3728C99.1458 56.3728 100.901 55.5253 101.722 54.5353L100.118 53.2507Z" fill="white"></path><path d="M92.0159 53.7829H86.2507V43.7095H83.6797V56.2087H92.0159V53.7829Z" fill="white"></path><path d="M137.597 48.6895C136.18 48.6895 135.152 49.8076 135.152 51.3985C135.152 52.9172 136.242 54.1075 137.631 54.1075C139.048 54.1075 140.076 52.9584 140.076 51.3985C140.076 49.8794 138.987 48.6895 137.597 48.6895ZM137.597 56.3713C134.823 56.3713 132.649 54.2186 132.649 51.3985C132.649 48.61 134.838 46.4253 137.631 46.4253C140.405 46.4253 142.578 48.578 142.578 51.3985C142.578 54.1866 140.39 56.3713 137.597 56.3713Z" fill="white"></path><path d="M118.068 48.6895C116.651 48.6895 115.623 49.8076 115.623 51.3985C115.623 52.9172 116.712 54.1075 118.102 54.1075C119.519 54.1075 120.547 52.9584 120.547 51.3985C120.547 49.8794 119.458 48.6895 118.068 48.6895ZM118.068 56.3713C115.294 56.3713 113.12 54.2186 113.12 51.3985C113.12 48.61 115.309 46.4253 118.102 46.4253C120.876 46.4253 123.049 48.578 123.049 51.3985C123.049 54.1866 120.861 56.3713 118.068 56.3713Z" fill="white"></path></g></g><defs><clipPath id="clip0_3197_749"><rect width="72" height="25" fill="white" transform="translate(77 38)"></rect></clipPath></defs></svg>