<svg xmlns="http://www.w3.org/2000/svg" width="228" height="100" viewBox="0 0 228 100" fill="none"><rect x="0.666992" y="0.000488281" width="226.667" height="100" rx="14" fill="white"></rect><g clip-path="url(#clip0_1836_843)"><path d="M117.484 71.3959C143.332 69.1312 163.361 56.85 162.221 43.9651C161.08 31.0803 139.202 22.4709 113.354 24.7356C87.5066 27.0003 67.4771 39.2814 68.6174 52.1663C69.7577 65.0512 91.6359 73.6606 117.484 71.3959Z" fill="white"></path><path d="M162.64 43.2879C164.457 57.851 142.923 72.4604 114.536 75.9389C86.1492 79.4173 61.911 70.4198 60.0931 55.8567C58.2753 41.2936 79.6702 26.6842 108.057 23.2058C136.444 19.7273 160.868 28.7249 162.64 43.2879ZM113.371 24.7363C87.501 27.0089 67.4578 39.2993 68.6231 52.1927C69.7884 65.0862 91.6494 73.7127 117.519 71.4401C143.389 69.1675 163.432 56.877 162.267 43.9836C161.101 31.0438 139.24 22.4637 113.371 24.7363Z" fill="#818181"></path><path d="M162.034 55.9497C165.02 55.9497 167.441 53.541 167.441 50.5697C167.441 47.5984 165.02 45.1897 162.034 45.1897C159.048 45.1897 156.627 47.5984 156.627 50.5697C156.627 53.541 159.048 55.9497 162.034 55.9497Z" fill="#6F6F6F"></path><path d="M160.449 31.2295C160.682 31.2295 160.868 31.2759 161.101 31.415C161.288 31.5078 161.474 31.6933 161.567 31.8788C161.707 32.1107 161.754 32.2962 161.754 32.5281C161.754 32.76 161.707 32.9919 161.567 33.1774C161.474 33.3629 161.288 33.5485 161.101 33.6412C160.915 33.734 160.682 33.8267 160.449 33.8267C160.216 33.8267 159.983 33.7803 159.796 33.6412C159.61 33.5485 159.423 33.3629 159.33 33.1774C159.237 32.9919 159.144 32.76 159.144 32.5281C159.144 32.2962 159.19 32.0643 159.33 31.8788C159.47 31.6933 159.61 31.5078 159.843 31.415C160.029 31.2759 160.262 31.2295 160.449 31.2295ZM160.449 31.3223C160.262 31.3223 160.076 31.3686 159.843 31.4614C159.61 31.5541 159.516 31.6933 159.377 31.8788C159.283 32.0643 159.237 32.2498 159.237 32.4817C159.237 32.6672 159.283 32.8991 159.377 33.0847C159.47 33.2702 159.61 33.4093 159.796 33.5021C159.983 33.5948 160.169 33.6412 160.402 33.6412C160.589 33.6412 160.822 33.5948 161.008 33.5021C161.194 33.4093 161.334 33.2702 161.428 33.0847C161.521 32.8991 161.567 32.7136 161.567 32.4817C161.567 32.2962 161.521 32.0643 161.428 31.8788C161.334 31.6933 161.194 31.5541 160.961 31.4614C160.728 31.3686 160.682 31.3223 160.449 31.3223ZM159.75 31.6933H160.449C160.635 31.6933 160.775 31.7397 160.868 31.8324C160.961 31.9252 161.008 32.0179 161.008 32.1107C161.008 32.2035 160.961 32.2962 160.915 32.3426C160.868 32.4354 160.728 32.4817 160.589 32.4817L160.961 33.0383C161.008 33.0847 161.055 33.131 161.101 33.1774C161.148 33.1774 161.148 33.2238 161.194 33.2238V33.2702H160.868L160.309 32.5281H160.169V33.131C160.169 33.1774 160.216 33.2238 160.216 33.2238C160.262 33.2238 160.309 33.2702 160.402 33.2702V33.3166H159.703V33.2702C159.75 33.2702 159.796 33.2702 159.843 33.2702C159.889 33.2702 159.889 33.2238 159.889 33.2238C159.889 33.2238 159.889 33.131 159.889 33.0383V32.0643C159.889 31.9716 159.889 31.9252 159.889 31.9252C159.889 31.8788 159.843 31.8788 159.843 31.8788C159.843 31.8788 159.796 31.8788 159.703 31.8788V31.6933H159.75ZM160.169 32.4817C160.309 32.4817 160.402 32.4817 160.495 32.4354C160.542 32.389 160.635 32.389 160.635 32.2962C160.682 32.2498 160.682 32.2035 160.682 32.1107C160.682 32.0179 160.635 31.9252 160.589 31.8788C160.542 31.8324 160.449 31.786 160.309 31.786C160.262 31.786 160.216 31.786 160.169 31.8324V32.4817Z" fill="#3B3B3B"></path><path d="M87.6405 46.0243H87.8269C88.4329 46.0707 88.7126 46.2562 88.8058 46.349C88.899 46.4417 89.0389 46.7664 89.0389 47.7403V51.6362C89.0389 52.5638 88.9456 53.2595 88.7126 53.6769C88.3397 54.4189 87.5939 54.79 86.4286 54.79C85.4031 54.79 84.7039 54.4189 84.331 53.7232C84.1446 53.3058 84.0514 52.7493 84.0514 51.9608V47.1374C84.0514 46.4881 84.1912 46.3026 84.2378 46.2562C84.331 46.2098 84.5641 46.0707 85.2167 46.0243H85.4031V45.3286H80.6953V46.0243H80.8818C81.5809 46.0707 81.7674 46.2098 81.8606 46.2562C81.9072 46.3026 82.0471 46.4881 82.0471 47.1374V51.8217C82.0471 52.7957 82.2335 53.5841 82.5598 54.187C83.2124 55.3001 84.3777 55.9031 86.1023 55.9031C87.8269 55.9031 89.0389 55.3465 89.6448 54.187C89.9711 53.5841 90.1575 52.7029 90.1575 51.6362V47.7403C90.1575 46.7664 90.2974 46.4881 90.3906 46.3953C90.4838 46.2562 90.7169 46.1171 91.3695 46.0707H91.5559V45.375H87.5939V46.0243H87.6405Z" fill="#3B3B3B"></path><path d="M77.8523 48.5288L76.2209 47.5085C75.615 47.1375 75.1955 46.8128 74.9158 46.4882C74.6361 46.2099 74.5429 45.8389 74.5429 45.4214C74.5429 44.9577 74.6827 44.5866 75.009 44.3547C75.3353 44.0764 75.7548 43.9373 76.2209 43.9373C76.8269 43.9373 77.4328 44.1692 78.0854 44.5866C78.6914 45.004 79.1575 45.8389 79.4371 46.952L79.4838 47.1375H80.3694L79.9033 42.7778H79.1109V42.917C79.0643 43.1025 79.0176 43.1952 78.9244 43.288C78.8778 43.3344 78.7846 43.3808 78.6447 43.3808C78.6447 43.3808 78.4583 43.3344 77.6659 43.1025C77.0599 42.8706 76.5006 42.7778 76.0811 42.7778C75.009 42.7778 74.1234 43.1025 73.4242 43.7518C72.7716 44.4011 72.4453 45.2359 72.4453 46.2563C72.4453 46.9983 72.725 47.694 73.2844 48.3433C73.564 48.668 73.9835 48.9926 74.4497 49.3173L76.0345 50.2913C76.9201 50.8478 77.5261 51.2652 77.8057 51.5435C78.2252 51.9609 78.4117 52.4247 78.4117 52.9813C78.4117 53.5842 78.2252 54.048 77.8523 54.3726C77.4794 54.6973 77.0133 54.8828 76.454 54.8828C75.4285 54.8828 74.5895 54.4654 73.8903 53.6769C73.4708 53.2131 73.1445 52.5638 72.8182 51.7754L72.7716 51.6363H71.9326L72.5386 56.0423H73.331L73.3776 55.8568C73.3776 55.7176 73.4242 55.6249 73.5174 55.4857C73.564 55.4393 73.6573 55.393 73.7505 55.393C73.7505 55.393 73.9369 55.393 74.7759 55.7176C75.4285 55.9495 76.0811 56.0423 76.6404 56.0423C77.8523 56.0423 78.8312 55.6712 79.6236 55.0219C80.416 54.3262 80.7889 53.445 80.7889 52.4247C80.7889 51.6363 80.5558 50.9869 80.1363 50.4304C79.6236 49.7347 78.9244 49.1318 77.8523 48.5288Z" fill="#3B3B3B"></path><path d="M95.6116 51.3579C95.8446 51.3579 96.0777 51.3579 96.2642 51.3579C97.4295 51.3579 98.4083 51.126 99.2007 50.6158C100.04 50.1057 100.413 49.3172 100.413 48.2041C100.413 47.3229 100.04 46.6272 99.2939 46.0707C98.5948 45.5605 97.5693 45.2822 96.2175 45.2822H92.0225V45.9779H92.2089C92.8615 46.0243 93.0479 46.1634 93.0945 46.2098C93.1412 46.2562 93.281 46.4881 93.281 47.091V53.5841C93.281 54.3262 93.1878 54.5581 93.1411 54.6508C93.0945 54.6972 92.9081 54.8363 92.2089 54.9291H92.0225V55.6248H96.6837V54.9291H96.4972C95.7514 54.8827 95.5184 54.7436 95.4717 54.6972C95.4251 54.6508 95.2853 54.4653 95.2853 53.816V51.3115C95.3785 51.3115 95.4718 51.3579 95.6116 51.3579ZM95.2853 46.5808C95.2853 46.3953 95.3319 46.3489 95.3319 46.3489C95.3319 46.3489 95.4251 46.3026 95.7514 46.3026C96.3574 46.3026 96.8701 46.3953 97.2896 46.5808C97.9888 46.9055 98.3617 47.462 98.3617 48.2505C98.3617 49.1317 98.0354 49.7346 97.3828 50.0593C97.0099 50.2448 96.4972 50.3376 95.8446 50.3376C95.7514 50.3376 95.7048 50.3376 95.6116 50.3376C95.565 50.3376 95.4251 50.3376 95.2853 50.2912V46.5808Z" fill="#3B3B3B"></path><path d="M108.103 52.7029L108.057 52.842C107.684 53.6305 107.311 54.1406 106.845 54.3262C106.379 54.5117 105.679 54.6508 104.654 54.6508C103.442 54.6508 103.116 54.6044 103.023 54.5581C102.976 54.5581 102.883 54.5117 102.883 54.2334V50.755H104.98C105.726 50.755 105.959 50.8941 106.052 50.9869C106.146 51.0796 106.285 51.3579 106.425 52.0536L106.472 52.2391H107.218V48.3433H106.472L106.425 48.5288C106.285 49.1781 106.146 49.4564 106.052 49.5491C105.959 49.6419 105.726 49.781 104.98 49.781H102.883V46.5808C102.883 46.3953 102.929 46.3489 102.883 46.3489C102.883 46.3489 102.976 46.3026 103.116 46.3026H105.167C106.239 46.3026 106.612 46.4417 106.751 46.5345C106.891 46.6272 107.078 46.9519 107.264 47.6939L107.311 47.8795H108.103L108.057 45.2822H99.6199V45.9779H99.8063C100.459 46.0243 100.692 46.1634 100.739 46.2098C100.785 46.2562 100.925 46.4881 100.925 47.091V53.7696C100.925 54.4653 100.785 54.6044 100.739 54.6508C100.645 54.6972 100.459 54.8363 99.7597 54.8827H99.5732V55.5784H108.15L108.942 52.6101H108.103V52.7029Z" fill="#3B3B3B"></path><path d="M117.892 54.79C117.705 54.6972 117.565 54.5581 117.379 54.3262L114.489 50.8013C115.188 50.6622 115.794 50.3839 116.214 50.0129C116.773 49.5491 117.053 48.9462 117.053 48.1114C117.053 46.9055 116.447 46.0707 115.235 45.6069C114.629 45.375 113.883 45.2822 112.997 45.2822H108.569V45.9779H108.756C109.408 46.0243 109.595 46.1634 109.688 46.2098C109.735 46.2562 109.874 46.4881 109.874 47.091V53.5841C109.874 54.3725 109.781 54.5581 109.735 54.6508C109.688 54.6972 109.502 54.8363 108.802 54.9291H108.616V55.6248H113.277V54.9291H113.091C112.392 54.8827 112.205 54.7436 112.112 54.6972C112.065 54.6508 111.925 54.4653 111.925 53.816V51.0796H112.252L116.027 55.7175H118.777V55.0219H118.591C118.311 54.9291 118.078 54.8827 117.892 54.79ZM111.879 50.0593V46.5808C111.879 46.3953 111.925 46.3489 111.925 46.3489C111.925 46.3489 112.065 46.3026 112.578 46.3026C113.184 46.3026 113.65 46.3953 114.023 46.5345C114.676 46.8127 114.955 47.3229 114.955 48.1114C114.955 48.8998 114.629 49.4564 113.883 49.7346C113.51 49.9201 112.811 50.0593 111.879 50.0593Z" fill="#3B3B3B"></path><path d="M125.909 52.471L122.6 45.2822H119.244V45.9779H119.477C120.223 46.0243 120.456 46.1634 120.502 46.2098C120.596 46.2562 120.689 46.4881 120.689 47.091V53.2131C120.689 54.187 120.549 54.4653 120.456 54.6044C120.363 54.6972 120.13 54.8827 119.384 54.9291H119.197V55.6248H123.206V54.9291H123.019C122.367 54.8827 122.18 54.7436 122.087 54.6508C121.947 54.5117 121.808 54.1406 121.808 53.2131V48.2969L125.257 55.7175H125.77L129.265 47.9722V53.6769C129.265 54.4653 129.126 54.6972 129.079 54.7436C129.032 54.79 128.846 54.9291 128.1 54.9755H127.914V55.6712H132.575V54.9755H132.388C131.736 54.9291 131.503 54.79 131.456 54.7436C131.41 54.6972 131.27 54.5117 131.27 53.8624V47.1374C131.27 46.5345 131.363 46.3026 131.456 46.2562C131.503 46.2098 131.736 46.0707 132.388 46.0243H132.575V45.3286H129.219L125.909 52.471Z" fill="#3B3B3B"></path><path d="M136.63 54.7436C136.584 54.6972 136.444 54.5581 136.444 53.8624V47.1374C136.444 46.4881 136.584 46.3026 136.63 46.2562C136.723 46.1634 136.956 46.0707 137.702 46.0243H137.935V45.3286H133.041V46.0243H133.274C134.02 46.0707 134.253 46.1634 134.346 46.2562C134.393 46.3026 134.533 46.4881 134.533 47.1374V53.816C134.533 54.5117 134.393 54.6972 134.346 54.6972C134.253 54.7436 134.02 54.8827 133.274 54.9291H133.088V55.6248H137.982V54.9291H137.795C136.956 54.9291 136.677 54.79 136.63 54.7436Z" fill="#3B3B3B"></path><path d="M145.906 53.3522C145.486 53.7696 145.067 54.0942 144.694 54.2798C144.088 54.6508 143.389 54.7899 142.643 54.7899C141.617 54.7899 140.778 54.4189 140.126 53.6768C139.473 52.9348 139.1 51.9144 139.1 50.6158C139.1 49.2244 139.426 48.1113 140.079 47.3229C140.732 46.5344 141.524 46.1634 142.503 46.1634C143.482 46.1634 144.228 46.5344 144.833 47.2301C145.16 47.6012 145.393 48.1577 145.579 48.7606L145.626 48.8998H146.372L146.232 45.0967H145.533L145.486 45.2358C145.439 45.3286 145.393 45.4213 145.3 45.4677C145.206 45.5141 145.113 45.5605 145.02 45.5605C144.973 45.5605 144.833 45.5141 144.088 45.3286C143.482 45.1431 142.922 45.0967 142.363 45.0967C140.732 45.0967 139.38 45.6532 138.401 46.72C137.422 47.7403 136.956 49.0389 136.956 50.5694C136.956 52.0536 137.422 53.3058 138.354 54.2798C139.333 55.3465 140.685 55.903 142.363 55.903C143.389 55.903 144.367 55.6248 145.253 55.0682C145.766 54.7435 146.185 54.3261 146.558 53.9087L146.698 53.7696L146.139 53.213L145.906 53.3522Z" fill="#3B3B3B"></path><path d="M156.627 54.9755C156.347 54.9291 156.16 54.8827 155.974 54.79C155.788 54.6972 155.648 54.5581 155.461 54.3262L152.571 50.8013C153.271 50.6622 153.876 50.3839 154.296 50.0129C154.855 49.5491 155.135 48.9462 155.135 48.1114C155.135 46.9055 154.529 46.0707 153.317 45.6069C152.711 45.375 151.965 45.2822 151.08 45.2822H146.698V45.9779H146.885C147.537 46.0243 147.724 46.1634 147.817 46.2098C147.864 46.2562 148.003 46.4881 148.003 47.091V53.5841C148.003 54.3725 147.91 54.5581 147.864 54.6508C147.817 54.6972 147.63 54.8363 146.931 54.9291H146.745V55.6248H151.406V54.9291H151.22C150.52 54.8827 150.334 54.7436 150.241 54.6972C150.194 54.6508 150.054 54.4653 150.054 53.816V51.0796H150.381L154.156 55.7175H156.906V55.0219L156.627 54.9755ZM149.961 50.0593V46.5808C149.961 46.3953 150.008 46.3489 150.008 46.3489C150.008 46.3489 150.148 46.3026 150.66 46.3026C151.266 46.3026 151.732 46.3953 152.105 46.5345C152.758 46.8127 153.037 47.3229 153.037 48.1114C153.037 48.8998 152.711 49.4564 151.965 49.7346C151.593 49.9201 150.893 50.0593 149.961 50.0593Z" fill="#3B3B3B"></path></g><defs><clipPath id="clip0_1836_843"><rect width="108" height="57" fill="white" transform="translate(60 22)"></rect></clipPath></defs></svg>