<svg xmlns="http://www.w3.org/2000/svg" width="227" height="100" viewBox="0 0 227 100" fill="none"><rect y="0.000488281" width="226.667" height="100" rx="14" fill="white"></rect><path d="M158 40.9253H69.3315V59.3787H158V40.9253Z" fill="#252525"></path><path d="M89.3575 46.9761V56.6566H91.4265C94.6776 56.6566 96.5988 54.6146 96.5988 51.8919C96.5988 49.1693 94.8254 46.9761 90.9831 46.9761H89.3575ZM91.4265 54.6902V48.8668C93.4954 48.7155 94.456 50.2281 94.456 51.9676C94.456 53.5558 93.4954 54.8415 91.4265 54.6902Z" fill="white"></path><path d="M118.101 46.976H115.959V52.3456L110.121 46.8247V56.6565H112.264V51.5893L118.101 57.1102V46.976Z" fill="white"></path><path d="M119.061 48.8668H121.647V56.6566H123.938V48.8668H126.524V46.9761H119.061V48.8668Z" fill="white"></path><path d="M127.337 56.6566V46.9761H132.953V48.7912H129.48V50.9088H132.583V52.7239H129.48V54.8415H132.953V56.6566H127.337Z" fill="white"></path><path d="M147.804 46.9761V50.9088H144.109V46.9761H141.966V56.6566H144.109V52.7239H147.804V56.6566H149.946V46.9761H147.804Z" fill="white"></path><path d="M95.5626 46.9761L100.365 56.9591L101.548 54.3877L98.001 46.9761H95.5626Z" fill="white"></path><path d="M105.243 46.6733L104.061 49.1691L105.021 51.7405H102.805L102.066 53.3287H105.612L107.016 56.6563H109.455L105.243 46.6733Z" fill="white"></path><path d="M133.396 51.8163C133.396 54.9919 135.76 56.7321 138.642 56.7321C139.75 56.7321 140.415 56.4296 140.858 56.1264V53.8575C140.415 54.4633 139.528 54.8414 138.642 54.8414C136.942 54.8414 135.538 53.6306 135.538 51.7399C135.538 49.8492 137.091 48.7147 138.642 48.7147C139.528 48.7147 140.415 49.0929 140.858 49.6979V47.5811C140.489 47.2029 139.75 46.9004 138.568 46.9004C135.686 46.9004 133.396 49.018 133.396 51.8163Z" fill="white"></path><path d="M81.968 52.8748L83.298 49.4715L84.6281 52.8748H81.968ZM88.8398 56.6563L83.3719 44.5557L77.9041 56.6563H80.5641L81.303 54.6143H85.2192L86.032 56.6563H88.8398Z" fill="white"></path></svg>