<svg width="121" height="29" viewBox="0 0 121 29" fill="none" xmlns="http://www.w3.org/2000/svg">
<path d="M42.0098 7.62305H41.7925H38.0985L30.8555 21.1288H35.1289C35.1289 21.1288 39.4023 12.5945 39.9817 11.3516C40.6336 12.5945 44.907 21.1288 44.907 21.1288H49.1804L42.0098 7.62305Z" fill="#273133"/>
<path d="M37.8813 17.8975H41.865L39.837 21.2117L37.8813 17.8975Z" fill="#7D8485"/>
<path d="M57.7999 7.62305H51.1362H50.7017V21.1288H57.7274C64.6083 21.1288 65.9845 17.4002 65.9845 14.3345C66.0569 11.3516 64.6083 7.62305 57.7999 7.62305ZM54.6853 10.2745C55.2648 10.2745 56.4961 10.2745 56.4961 10.2745C60.3349 10.3573 62.0008 10.7716 62.0008 14.3345C62.0008 17.9802 60.4074 18.3945 56.4961 18.4773C56.4961 18.4773 55.1924 18.4773 54.6853 18.4773C54.6853 17.7316 54.6853 11.103 54.6853 10.2745Z" fill="#273133"/>
<path d="M71.4168 18.3945C71.4168 17.5659 71.4168 7.62305 71.4168 7.62305H70.9822H67.4331V21.1288H80.3982V18.3945C80.3982 18.3945 72.1411 18.3945 71.4168 18.3945Z" fill="#273133"/>
<path d="M85.6853 7.62305H82.1362V21.2116H86.0475V7.62305H85.6853Z" fill="#273133"/>
<path d="M107.921 7.62305H104.3V21.2116H108.283V7.62305H107.921Z" fill="#273133"/>
<path d="M98.6504 7.62305C98.6504 7.62305 98.6504 14.0859 98.6504 15.8259C97.4915 14.4173 91.6971 7.62305 91.6971 7.62305H91.5522H88.3652H87.9307V21.1288H91.6246C91.6246 21.1288 91.6246 14.6659 91.6246 12.843C92.7835 14.2516 98.578 21.1288 98.578 21.1288H102.344V7.62305H98.6504Z" fill="#273133"/>
<path d="M113.137 13.2573C113.861 12.6773 120.017 7.62305 120.017 7.62305H118.714H114.875L108.501 13.423L115.165 21.1288H120.669C120.669 21.2116 113.788 14.003 113.137 13.2573Z" fill="#273133"/>
<path d="M0 28.8344C7.46035 20.7144 16.5142 20.7144 23.9745 28.8344L19.0492 16.9858L4.2734 18.7258L0 28.8344Z" fill="#CE343A"/>
<path d="M5.07031 16.6545H18.9045L17.8181 14.0859L5.43247 15.8259L5.07031 16.6545Z" fill="#CE343A"/>
<path d="M6.229 13.7543H17.673L16.659 11.2686L6.59116 12.9257L6.229 13.7543Z" fill="#CE343A"/>
<path d="M7.46045 10.8543H16.5143L11.9511 0L7.46045 10.8543Z" fill="#CE343A"/>
<path d="M23.9746 26.8457C23.9746 27.9228 24.6989 28.7514 25.6405 28.7514C26.5821 28.7514 27.3064 27.9228 27.3064 26.8457C27.3064 25.7685 26.5821 24.9399 25.6405 24.9399C24.6989 24.9399 23.9746 25.8514 23.9746 26.8457ZM24.1919 26.8457C24.1919 25.9342 24.8438 25.2714 25.5681 25.2714C26.3648 25.2714 26.9443 26.0171 26.9443 26.8457C26.9443 27.7571 26.2924 28.4199 25.5681 28.4199C24.8438 28.5028 24.1919 27.7571 24.1919 26.8457Z" fill="#273133"/>
<path d="M24.9888 27.9227V25.9341H25.7131C25.9304 25.9341 26.0028 25.9341 26.1477 26.0169C26.2201 26.0169 26.2925 26.0998 26.3649 26.1827C26.4374 26.2655 26.4374 26.3484 26.4374 26.5141C26.4374 26.6798 26.3649 26.7627 26.2925 26.8455C26.2201 26.9284 26.0752 27.0112 25.9304 27.0112C26.0028 27.0941 26.0752 27.0941 26.1477 27.1769C26.2201 27.2598 26.2925 27.3427 26.3649 27.5084L26.5822 27.9227H26.1477L25.8579 27.5084C25.7855 27.3427 25.7131 27.2598 25.6406 27.1769L25.5682 27.0941C25.4958 27.0941 25.4958 27.0941 25.4234 27.0941H25.3509V27.9227H24.9888ZM25.2785 26.7627H25.5682C25.7131 26.7627 25.8579 26.7627 25.8579 26.7627C25.9304 26.7627 25.9304 26.6798 25.9304 26.6798C25.9304 26.6798 25.9304 26.5969 25.9304 26.5141C25.9304 26.4312 25.9304 26.4312 25.8579 26.3484C25.8579 26.3484 25.7855 26.2655 25.7131 26.2655C25.7131 26.2655 25.5682 26.2655 25.4234 26.2655H25.1336V26.7627H25.2785Z" fill="#273133"/>
</svg>
