<svg width="81" height="26" viewBox="0 0 81 26" fill="none" xmlns="http://www.w3.org/2000/svg">
<g clip-path="url(#clip0_32_9735)">
<path d="M0 0V26H81V0H0Z" fill="#F30000"/>
<mask id="mask0_32_9735" style="mask-type:luminance" maskUnits="userSpaceOnUse" x="0" y="0" width="82" height="26">
<path d="M0.000488281 0V26H81.0005V0H0.000488281Z" fill="white"/>
</mask>
<g mask="url(#mask0_32_9735)">
<path d="M35.2861 8.7627C34.09 8.7627 32.7293 9.29683 31.8975 10.3659L31.8983 10.364L31.8975 10.3647L31.8983 8.9304H29.0444V18.9373H31.8975V13.2437C31.8975 12.2187 32.7225 11.1294 34.2503 11.1294C35.4312 11.1294 36.6528 11.92 36.6528 13.2437V18.9373H39.5066V12.7341C39.5066 10.4329 37.7968 8.7627 35.2861 8.7627Z" fill="white"/>
<path d="M59.7882 8.93115L57.2084 15.7478L54.6285 8.93115H51.3691L55.6449 18.9342H58.7715L63.0476 8.93115H59.7882Z" fill="white"/>
<path d="M20.5254 11.9456C21.0114 11.3173 21.7855 10.9485 22.7204 10.9485C23.7491 10.9485 24.5292 11.5141 24.932 12.3484L19.9469 14.3402C19.8105 13.3183 20.0821 12.5188 20.5254 11.9456ZM26.008 15.8607C24.8068 16.7164 24.1205 16.9209 23.0254 16.9209C22.0396 16.9209 21.2682 16.6264 20.7239 16.1095L28.0193 13.195C27.8602 12.1091 27.4323 11.1392 26.7735 10.4014C25.8148 9.32927 24.396 8.76221 22.6691 8.76221C19.531 8.76221 17.165 10.9914 17.165 13.9351C17.165 16.9554 19.5365 19.1076 22.9832 19.1076C24.9141 19.1076 26.8888 18.2262 27.8121 17.1966L26.008 15.8607Z" fill="white"/>
<path d="M16.8928 16.4143H10.407V5.93799H7.51465V18.9372H16.8928V16.4143Z" fill="white"/>
<path d="M68.1715 11.117C66.5778 11.117 65.4211 12.2798 65.4211 13.9343C65.4211 15.5138 66.6466 16.7517 68.2101 16.7517C69.8038 16.7517 70.9606 15.5566 70.9606 13.9343C70.9606 12.3545 69.7354 11.117 68.1715 11.117ZM68.1715 19.1061C65.0505 19.1061 62.6055 16.8673 62.6055 13.9343C62.6055 11.0343 65.0676 8.76221 68.2101 8.76221C71.3307 8.76221 73.7754 11.001 73.7754 13.9343C73.7754 16.834 71.314 19.1061 68.1715 19.1061Z" fill="white"/>
<path d="M46.2014 11.117C44.6077 11.117 43.451 12.2798 43.451 13.9343C43.451 15.5138 44.6765 16.7517 46.24 16.7517C47.8337 16.7517 48.9908 15.5566 48.9908 13.9343C48.9908 12.3545 47.7653 11.117 46.2014 11.117ZM46.2014 19.1061C43.0804 19.1061 40.6357 16.8673 40.6357 13.9343C40.6357 11.0343 43.0975 8.76221 46.24 8.76221C49.3606 8.76221 51.8057 11.001 51.8057 13.9343C51.8057 16.834 49.3439 19.1061 46.2014 19.1061Z" fill="white"/>
</g>
</g>
<defs>
<clipPath id="clip0_32_9735">
<rect width="81" height="26" fill="white"/>
</clipPath>
</defs>
</svg>
