<svg width="117" height="26" viewBox="0 0 117 26" fill="none" xmlns="http://www.w3.org/2000/svg">
<rect width="117" height="26" fill="white"/>
<mask id="mask0_32_9976" style="mask-type:luminance" maskUnits="userSpaceOnUse" x="0" y="2" width="116" height="22">
<path d="M115.143 2.6001H0V23.4001H115.143V2.6001Z" fill="white"/>
</mask>
<g mask="url(#mask0_32_9976)">
<mask id="mask1_32_9976" style="mask-type:luminance" maskUnits="userSpaceOnUse" x="0" y="2" width="116" height="22">
<path d="M115.143 2.60303H0V23.403H115.143V2.60303Z" fill="white"/>
</mask>
<g mask="url(#mask1_32_9976)">
<path d="M38.5155 13.5021C38.5155 16.7144 36.2164 18.0415 33.8753 18.0415C31.5237 18.0415 29.2349 16.7144 29.2349 13.5021V7.68848H31.4297V13.3021C31.4297 15.2506 32.5062 15.9667 33.8753 15.9667C35.2444 15.9667 36.321 15.2506 36.321 13.3021V7.68848H38.5155V13.5021Z" fill="#111F68"/>
<path d="M42.862 4.29883H40.6045V17.78H42.862V4.29883Z" fill="#111F68"/>
<path d="M49.7122 9.43852H47.12V14.4939C47.12 15.842 47.9981 15.821 49.7122 15.7368V17.78C46.2631 18.2013 44.8628 17.2534 44.8628 14.4939V4.29883H47.12V7.24796H49.7122V9.43852Z" fill="#111F68"/>
<path d="M72.2872 4.29883H70.0298V17.78H72.2872V4.29883Z" fill="#111F68"/>
<path d="M90.1036 9.43852H87.5114V14.4939C87.5114 15.842 88.3895 15.821 90.1036 15.7368V17.78C86.654 18.2013 85.2539 17.2534 85.2539 14.4939V4.29883H87.5114V7.24796H90.1036V9.43852Z" fill="#111F68"/>
<path d="M91.7645 8.41194H94.0232V17.7786H91.7645V8.41194ZM91.8704 6.41085C91.3056 5.82106 91.3056 4.93629 91.8704 4.36764C92.4333 3.77785 93.3544 3.77785 93.9192 4.36764C94.4821 4.93629 94.4821 5.82106 93.8971 6.41085C93.3323 6.97947 92.4554 6.97947 91.8704 6.41085Z" fill="#111F68"/>
<path d="M81.6889 7.24902H84.0926L80.0795 18.1182C78.8556 21.3719 77.9267 21.994 74.9588 21.994L74.979 19.8666C76.4005 19.9506 77.1948 19.2556 77.759 17.8022L77.8637 17.5914L73.4326 7.24902H75.8987L79.0135 14.8952L81.6889 7.24902Z" fill="#111F68"/>
<path d="M97.227 16.4542C96.1818 15.3798 95.6592 14.0739 95.6592 12.5151C95.6592 10.9354 96.1818 9.62924 97.227 8.57618C98.293 7.50179 99.6099 6.9751 101.178 6.9751C103.205 6.9751 105.002 8.02849 105.839 9.69249L103.895 10.8299C103.414 9.81898 102.411 9.20804 101.156 9.20804C100.236 9.20804 99.4636 9.52401 98.8364 10.1559C98.2299 10.7878 97.9166 11.5672 97.9166 12.5151C97.9166 13.4629 98.2299 14.2424 98.8364 14.8744C99.4636 15.5062 100.236 15.8223 101.156 15.8223C102.39 15.8223 103.435 15.1903 103.937 14.2002L105.88 15.3167C104.981 17.0019 103.205 18.0549 101.178 18.0549C99.6099 18.0549 98.293 17.5284 97.227 16.4542Z" fill="#111F68"/>
<path d="M111.471 11.5249C113.08 11.883 115.17 12.5572 115.128 14.811C115.128 15.8221 114.731 16.6227 113.958 17.1913C113.185 17.76 112.223 18.0549 111.053 18.0549C108.983 18.0549 107.457 17.1282 106.788 15.5904L108.732 14.453C109.088 15.464 109.861 15.9696 111.053 15.9696C112.244 15.9696 112.829 15.5692 112.829 14.7899C112.829 14.1158 111.951 13.7157 110.843 13.4418C109.276 13.0416 107.164 12.4097 107.206 10.1979C107.206 9.22884 107.562 8.44962 108.293 7.85981C109.025 7.27 109.944 6.9751 111.031 6.9751C112.767 6.9751 114.167 7.79657 114.899 9.16579L112.996 10.24C112.641 9.43964 111.972 9.03943 111.031 9.03943C110.175 9.03943 109.506 9.41864 109.506 10.1559C109.506 10.8509 110.384 11.209 111.471 11.5249Z" fill="#111F68"/>
<path d="M62.7777 15.8854C63.7186 15.8854 64.5127 15.5693 65.1398 14.9375C65.767 14.2845 66.0803 13.4839 66.0803 12.5151C66.0803 11.5461 65.767 10.7456 65.1398 10.1136C64.5127 9.46076 63.7186 9.1448 62.7777 9.1448C61.8373 9.1448 61.0428 9.46076 60.4158 10.1136C59.7889 10.7456 59.4754 11.5461 59.4754 12.5151C59.4754 13.4839 59.7889 14.2845 60.4158 14.9375C61.0428 15.5693 61.8373 15.8854 62.7777 15.8854ZM66.0803 7.24914H68.3378V17.7812H66.0803V16.2644C65.2236 17.4652 64.0112 18.055 62.4226 18.055C60.9804 18.055 59.7681 17.5282 58.7437 16.4542C57.7193 15.3799 57.2178 14.0528 57.2178 12.5151C57.2178 10.9563 57.7193 9.65043 58.7437 8.57598C59.7681 7.50179 60.9804 6.9751 62.4226 6.9751C64.0112 6.9751 65.2236 7.56504 66.0803 8.74466V7.24914Z" fill="#111F68"/>
<path d="M53.5715 9.15664C54.1209 7.88492 55.1794 7.24902 56.706 7.24902V9.64895C55.8718 9.5874 55.139 9.79254 54.5079 10.2644C53.8768 10.7156 53.5715 11.4745 53.5715 12.5207V17.69H51.373V7.43369H53.5715V9.15664Z" fill="#111F68"/>
<path d="M12.7594 8.29595L12.7576 11.1978C12.769 15.1579 9.56335 18.3887 5.64632 18.3826C4.09041 18.3797 2.67399 17.902 1.52588 17.0668C3.58629 20.7984 7.53632 23.3195 12.0265 23.3237C18.5495 23.3202 23.9396 17.97 24.04 11.3911L24.0386 11.3637C24.0445 11.2121 24.0375 8.40697 24.0448 8.28282C24.0354 5.16146 21.5023 2.59547 18.4048 2.60255C15.293 2.59662 12.7485 5.14715 12.7594 8.29595Z" fill="url(#paint0_linear_32_9976)"/>
<path d="M5.63978 5.52246C2.53007 5.52246 0 8.07209 0 11.206C0 14.3396 2.53007 16.8892 5.63978 16.8892C8.74965 16.8892 11.2796 14.3396 11.2796 11.206C11.2796 8.07209 8.74965 5.52246 5.63978 5.52246Z" fill="#0B23A9"/>
</g>
</g>
<defs>
<linearGradient id="paint0_linear_32_9976" x1="6.80663" y1="23.1264" x2="19.8271" y2="8.81407" gradientUnits="userSpaceOnUse">
<stop stop-color="#09DBF0"/>
<stop offset="1" stop-color="#0B23A9"/>
</linearGradient>
</defs>
</svg>
