<svg xmlns="http://www.w3.org/2000/svg" width="60" height="60" viewBox="0 0 60 60" fill="none"><g clip-path="url(#clip0_40000494_8882)"><path d="M58.98 24.9006H43.64V19.1406L32.75 30.0206L43.64 40.9006V35.1506H58.98" stroke="black" stroke-width="1.4" stroke-linejoin="round"></path><path d="M47.7812 19.1406H58.9813" stroke="black" stroke-width="1.4" stroke-linejoin="round" stroke-dasharray="2 1"></path><path d="M47.7812 14.8398H58.9813" stroke="black" stroke-width="1.4" stroke-linejoin="round" stroke-dasharray="2 1"></path><path d="M41.3438 30.0195H52.5337" stroke="black" stroke-width="1.4" stroke-linejoin="round" stroke-dasharray="2 1"></path><path d="M47.7812 40.8984H58.9813" stroke="black" stroke-width="1.4" stroke-linejoin="round" stroke-dasharray="2 1"></path><path d="M47.7812 45.1992H58.9813" stroke="black" stroke-width="1.4" stroke-linejoin="round" stroke-dasharray="2 1"></path><path d="M0.976562 35.1506H16.3166V40.9006L27.1966 30.0206L16.3166 19.1406V24.9006H0.976562" stroke="black" stroke-width="1.4" stroke-linejoin="round"></path><path d="M12.1766 40.8984H0.976562" stroke="black" stroke-width="1.4" stroke-linejoin="round" stroke-dasharray="2 1"></path><path d="M12.1766 45.1992H0.976562" stroke="black" stroke-width="1.4" stroke-linejoin="round" stroke-dasharray="2 1"></path><path d="M18.6219 30.0195H7.42188" stroke="black" stroke-width="1.4" stroke-linejoin="round" stroke-dasharray="2 1"></path><path d="M12.1766 19.1406H0.976562" stroke="black" stroke-width="1.4" stroke-linejoin="round" stroke-dasharray="2 1"></path><path d="M12.1766 14.8398H0.976562" stroke="black" stroke-width="1.4" stroke-linejoin="round" stroke-dasharray="2 1"></path><path d="M24.8516 59.0208V43.6808H19.1016L29.9816 32.8008L40.8616 43.6808H35.1016V59.0208H24.8516Z" fill="#005EEB" stroke="black" stroke-width="1.4" stroke-linejoin="round"></path><path d="M40.8594 47.8203V59.0203" stroke="black" stroke-width="1.4" stroke-linejoin="round" stroke-dasharray="2 1"></path><path d="M45.1562 47.8203V59.0203" stroke="black" stroke-width="1.4" stroke-linejoin="round" stroke-dasharray="2 1"></path><path d="M29.9766 41.3789V52.5789" stroke="black" stroke-width="1.4" stroke-linejoin="round" stroke-dasharray="2 1"></path><path d="M19.1016 47.8203V59.0203" stroke="black" stroke-width="1.4" stroke-linejoin="round" stroke-dasharray="2 1"></path><path d="M14.7969 47.8203V59.0203" stroke="black" stroke-width="1.4" stroke-linejoin="round" stroke-dasharray="2 1"></path><path d="M35.1016 16.3595V1.01953H24.8516V16.3595H19.1016L29.9816 27.2495L40.8616 16.3595H35.1016Z" fill="#005EEB" stroke="black" stroke-width="1.4" stroke-linejoin="round"></path><path d="M19.1016 12.2195V1.01953" stroke="black" stroke-width="1.4" stroke-linejoin="round" stroke-dasharray="2 1"></path><path d="M14.7969 12.2195V1.01953" stroke="black" stroke-width="1.4" stroke-linejoin="round" stroke-dasharray="2 1"></path><path d="M29.9766 18.6588V7.46875" stroke="black" stroke-width="1.4" stroke-linejoin="round" stroke-dasharray="2 1"></path><path d="M40.8594 12.2195V1.01953" stroke="black" stroke-width="1.4" stroke-linejoin="round"></path><path d="M45.1562 12.2195V1.01953" stroke="black" stroke-width="1.4" stroke-linejoin="round" stroke-dasharray="2 1"></path></g><defs><clipPath id="clip0_40000494_8882"><rect width="60" height="60" fill="white"></rect></clipPath></defs></svg>