<svg xmlns="http://www.w3.org/2000/svg" width="65" height="123" viewBox="0 0 65 123" fill="none"><g clip-path="url(#clip0_3197_977)"><path fill-rule="evenodd" clip-rule="evenodd" d="M62.7202 122.806C47.2259 119.836 35.0119 111.85 26.2435 98.9112C17.8258 86.5886 14.0192 70.9053 16.8251 54.8109C19.631 38.7062 28.513 25.2325 40.6134 16.4556C42.9861 14.729 45.4825 13.1874 48.0821 11.841C48.0305 11.8308 47.9789 11.8102 47.9273 11.7999C50.2484 2.65303 53.9827 5.23266 62.9575 3.20801C62.7306 6.7126 55.6436 13.1257 49.2168 12.1082C46.3593 13.5265 43.636 15.1812 41.0467 17.062C29.101 25.7258 20.3325 39.0453 17.5576 54.9445C14.7826 70.8436 18.5376 86.3214 26.8521 98.5001C35.1667 110.669 48.0305 119.528 63.4836 122.2C65.3611 122.58 65.9078 123.371 62.7202 122.816V122.806Z" fill="#2A2A2A"></path><path fill-rule="evenodd" clip-rule="evenodd" d="M41.9854 12.4469C48.6701 9.54869 46.2458 7.041 46.6791 0.000976562C43.8526 0.648453 39.4787 7.62681 41.9854 12.4469Z" fill="#2A2A2A"></path><path fill-rule="evenodd" clip-rule="evenodd" d="M35.3626 18.6849C41.2529 14.3992 38.3232 12.4876 37.1988 5.51953C34.5889 6.77337 31.8552 14.5328 35.3626 18.6849Z" fill="#2A2A2A"></path><path fill-rule="evenodd" clip-rule="evenodd" d="M40.665 19.8875C45.2864 22.4979 52.2703 18.5103 53.0027 15.797C46.1014 15.9512 43.7391 13.5052 40.665 19.8875Z" fill="#2A2A2A"></path><path fill-rule="evenodd" clip-rule="evenodd" d="M32.402 27.8523C37.2504 30.0106 43.8113 25.3755 44.2961 22.6006C37.4361 23.4125 34.8468 21.2029 32.402 27.8523Z" fill="#2A2A2A"></path><path fill-rule="evenodd" clip-rule="evenodd" d="M28.1312 25.6427C34.2691 21.1721 31.226 19.1782 30.0396 11.9121C27.3163 13.2173 24.4691 21.3057 28.1312 25.6427Z" fill="#2A2A2A"></path><path fill-rule="evenodd" clip-rule="evenodd" d="M23.0662 33.2482C27.2235 26.907 23.6645 26.1157 19.9818 19.7334C17.898 21.9122 18.1043 30.4836 23.0662 33.2482Z" fill="#2A2A2A"></path><path fill-rule="evenodd" clip-rule="evenodd" d="M24.8921 38.2948C30.6587 39.5075 36.6934 32.9505 36.5593 29.8262C29.3176 32.303 25.9959 30.5148 24.8921 38.2948Z" fill="#2A2A2A"></path><path fill-rule="evenodd" clip-rule="evenodd" d="M17.7019 42.4159C22.4163 35.2217 18.3828 34.3173 14.2049 27.082C11.8425 29.5589 12.0695 39.2813 17.7019 42.4159Z" fill="#2A2A2A"></path><path fill-rule="evenodd" clip-rule="evenodd" d="M20.3634 48.2941C26.2331 48.8697 31.4941 41.6858 31.0196 38.6025C24.0977 41.8605 20.5903 40.4422 20.3634 48.2941Z" fill="#2A2A2A"></path><path fill-rule="evenodd" clip-rule="evenodd" d="M14.6175 52.0564C18.0733 43.8036 13.7716 43.6392 8.10825 37.0205C6.15856 40.001 8.25268 49.9084 14.6175 52.0564Z" fill="#2A2A2A"></path><path fill-rule="evenodd" clip-rule="evenodd" d="M13.2352 62.1385C15.4324 53.043 10.9554 53.5877 4.01282 47.6885C2.49639 51.0903 6.31325 60.9772 13.2352 62.1385Z" fill="#2A2A2A"></path><path fill-rule="evenodd" clip-rule="evenodd" d="M18.0939 61.9738C25.4181 61.5525 30.5038 51.7067 29.3175 48.0068C21.4362 53.3511 16.8457 52.272 18.0939 61.9738Z" fill="#2A2A2A"></path><path fill-rule="evenodd" clip-rule="evenodd" d="M14.1327 73.7619C14.8032 63.8339 10.2126 65.2008 1.87746 60.2471C0.897452 64.0805 6.65368 73.7721 14.1327 73.7619Z" fill="#2A2A2A"></path><path fill-rule="evenodd" clip-rule="evenodd" d="M16.7838 82.724C13.2455 73.4229 9.64526 76.5678 -0.010346 75.5195C0.701446 79.4147 9.996 85.8278 16.7838 82.724Z" fill="#2A2A2A"></path><path fill-rule="evenodd" clip-rule="evenodd" d="M18.8367 75.1805C26.0887 73.7109 29.7405 63.1765 28.0281 59.6514C20.9308 66.1056 16.2062 65.6842 18.8367 75.1805Z" fill="#2A2A2A"></path><path fill-rule="evenodd" clip-rule="evenodd" d="M21.364 91.9218C15.9379 83.5765 13.0804 87.3997 3.4248 88.4069C4.94123 92.0657 15.3912 96.3822 21.364 91.9218Z" fill="#2A2A2A"></path><path fill-rule="evenodd" clip-rule="evenodd" d="M23.8811 89.0034C29.9675 85.4269 29.9675 74.7795 27.3163 72.1279C22.9321 80.1546 18.5375 81.244 23.8811 89.0034Z" fill="#2A2A2A"></path><path fill-rule="evenodd" clip-rule="evenodd" d="M26.3053 101.83C20.8792 93.4745 18.0217 97.308 8.36608 98.3151C9.88251 101.974 20.3221 106.29 26.3053 101.83Z" fill="#2A2A2A"></path><path fill-rule="evenodd" clip-rule="evenodd" d="M33.155 102.539C37.8693 96.6394 33.7843 85.9818 30.1118 84.3477C28.8017 94.0495 24.8198 96.8141 33.155 102.539Z" fill="#2A2A2A"></path><path fill-rule="evenodd" clip-rule="evenodd" d="M34.5477 109.425C26.7077 102.2 24.7683 106.927 15.0405 110.514C17.5885 113.906 29.5446 115.632 34.5477 109.425Z" fill="#2A2A2A"></path><path fill-rule="evenodd" clip-rule="evenodd" d="M43.2233 116.012C34.3104 110.586 33.3613 115.478 24.7064 120.781C27.8011 123.546 39.6127 122.919 43.2233 116.012Z" fill="#2A2A2A"></path><path fill-rule="evenodd" clip-rule="evenodd" d="M46.2252 113.73C49.2787 106.022 41.5315 96.115 37.1473 95.5703C38.9113 106.197 35.6206 110.38 46.2252 113.73Z" fill="#2A2A2A"></path></g><defs><clipPath id="clip0_3197_977"><rect width="65" height="123" fill="white" transform="matrix(-1 0 0 1 65 0.000976562)"></rect></clipPath></defs></svg>