<svg xmlns="http://www.w3.org/2000/svg" width="228" height="100" viewBox="0 0 228 100" fill="none"><rect x="0.666504" y="0.000488281" width="226.667" height="100" rx="14" fill="white"></rect><g clip-path="url(#clip0_1836_868)"><path d="M92.7063 53.4949C94.0506 51.0685 96.0551 48.6536 98.2708 46.7914C101.834 43.7967 106.14 41.8903 110.669 41.3025C110.922 41.2698 111.147 41.2232 111.17 41.1989C111.193 41.1747 113.149 37.5176 115.517 33.0721C117.885 28.6264 119.833 25.0019 119.848 25.0174C119.871 25.043 134.885 53.2181 135.072 53.587L135.152 53.7437H132.694L132.393 53.2921C130.994 51.1901 129.146 49.2345 127.13 47.7228C124.114 45.4602 120.691 44.0392 116.954 43.4981C116.666 43.4564 116.29 43.4115 116.119 43.3983C115.948 43.3851 115.808 43.3631 115.808 43.3495C115.808 43.3277 116.864 41.3217 116.892 41.2897C116.912 41.2675 117.973 41.4336 118.542 41.5479C121.922 42.227 124.991 43.5389 127.761 45.4885C128.26 45.8396 128.433 45.9199 128.433 45.7998C128.433 45.7406 119.976 29.8328 119.902 29.7536C119.878 29.7275 119.833 29.7156 119.803 29.7273C119.773 29.7389 116.887 35.1205 113.39 41.6863C109.893 48.252 107.012 53.6512 106.988 53.6844C106.948 53.7386 106.819 53.7438 105.728 53.735L104.512 53.7253L107.006 49.0436C110.012 43.401 109.809 43.7952 109.743 43.7288C109.698 43.6843 109.631 43.69 109.265 43.7695C107.404 44.1735 105.822 44.7245 104.118 45.5616C103.163 46.0305 102.559 46.3782 101.659 46.9778C99.177 48.6297 97.101 50.7076 95.4612 53.1811L95.0889 53.7427L93.8286 53.7432L92.5684 53.7437L92.7063 53.4949Z" fill="#808080"></path><path d="M67.0143 74.9509C67.1609 74.5822 72.4605 62.8059 72.4885 62.7865C72.51 62.7716 73.0169 62.7592 73.615 62.7588C74.4407 62.7584 74.7116 62.7694 74.7405 62.8044C74.7695 62.8395 79.9204 74.2996 80.1669 74.8776L80.2183 74.998L79.0957 74.9882L77.9732 74.9785L77.2256 73.2698C76.8144 72.3301 76.4673 71.5504 76.4542 71.5373C76.416 71.4989 70.9135 71.4893 70.8159 71.5274C70.7447 71.5552 70.5952 71.8688 69.981 73.2791L69.2328 74.9969H68.1144C67.2343 74.9969 66.9999 74.9871 67.0143 74.9508V74.9509ZM75.6507 69.6748C75.6613 69.6469 75.2178 68.5727 74.665 67.2879C73.861 65.4187 73.6467 64.9516 73.593 64.9516C73.5392 64.9516 73.3319 65.4121 72.5396 67.2911C71.997 68.5779 71.5613 69.652 71.5712 69.678C71.599 69.7507 75.6229 69.7475 75.6507 69.6748ZM84.6014 74.9508C84.5918 74.9255 84.5882 72.1759 84.5934 68.8407L84.6028 62.7767L85.9101 62.7671C86.9276 62.7595 87.2258 62.7677 87.2556 62.8039C87.2767 62.8295 88.3135 64.7913 89.5598 67.1634C90.806 69.5356 91.8425 71.4874 91.8629 71.5007C91.8833 71.514 91.9181 71.5178 91.9401 71.509C91.9621 71.5003 92.9864 69.5771 94.2162 67.2354C95.4461 64.8937 96.4824 62.9281 96.5191 62.8675L96.5858 62.7573L97.8982 62.7671L99.2106 62.7767V74.9785L98.2288 74.9883L97.247 74.9981L97.2464 70.4541C97.2461 67.8877 97.2318 65.8877 97.2134 65.8586C97.1956 65.8304 97.1579 65.8161 97.1298 65.8269C97.1016 65.8378 96.1099 67.6691 94.926 69.8965L92.7736 73.9463H91.0401L88.8875 69.8965C87.7037 67.6691 86.7119 65.8378 86.6837 65.827C86.6555 65.8161 86.6178 65.8304 86.6 65.8587C86.5817 65.8877 86.5673 67.8874 86.567 70.4535L86.5665 74.9969H85.5927C84.8474 74.9969 84.6148 74.9861 84.6015 74.9508H84.6014ZM105.522 74.9508C105.512 74.9255 105.509 72.1759 105.514 68.8407L105.523 62.7767L108.919 62.7777C111.976 62.7785 112.355 62.7851 112.727 62.8435C114.136 63.0648 115.051 63.6593 115.507 64.6497C115.869 65.4371 115.941 66.543 115.693 67.523C115.391 68.7191 114.576 69.5895 113.412 69.9581C112.713 70.1793 112.71 70.1796 110.001 70.2022L107.505 70.2231L107.496 72.61L107.487 74.9969H106.513C105.768 74.9969 105.535 74.9861 105.522 74.9508ZM112.486 68.3344C112.823 68.2396 112.948 68.1792 113.207 67.9851C113.598 67.6918 113.826 67.1878 113.861 66.5368C113.914 65.5614 113.515 64.9046 112.704 64.6301C112.463 64.5483 112.435 64.5474 110.025 64.5359C108.207 64.5272 107.577 64.5352 107.539 64.5674C107.467 64.6275 107.461 68.3206 107.533 68.3929C107.569 68.4292 108.074 68.4364 109.891 68.4265C112.126 68.4143 112.213 68.4112 112.486 68.3344ZM120.003 68.8776V62.758L124.967 62.7674L129.931 62.7767V64.5093L125.967 64.5277L122.003 64.5462V67.7901L125.765 67.8086L129.527 67.827V69.5596L125.765 69.578L122.003 69.5964L121.994 71.4118L121.984 73.2271L125.957 73.2365L129.931 73.2459V74.9785L124.967 74.9878L120.003 74.9972V68.8776ZM135.317 68.8874L135.326 62.7767L138.923 62.7775C142.177 62.7783 142.559 62.7845 142.933 62.8434C144.344 63.0653 145.258 63.6594 145.713 64.6497C145.982 65.2333 146.097 66.003 146.027 66.7537C145.898 68.1468 145.307 69.1105 144.215 69.7088C144.036 69.8067 143.968 69.8632 143.98 69.9056C143.988 69.9383 144.584 71.0836 145.304 72.4506C146.023 73.8176 146.612 74.95 146.612 74.967C146.612 74.9841 146.114 74.9936 145.505 74.9882L144.398 74.9785L143.143 72.6008L141.888 70.2231L139.589 70.2136L137.29 70.2042L137.281 72.5913L137.271 74.9785L136.29 74.9883L135.308 74.9981L135.317 68.8874ZM142.692 68.3346C143.03 68.2395 143.154 68.1791 143.413 67.9851C143.804 67.6918 144.032 67.1878 144.067 66.5368C144.121 65.5513 143.712 64.8879 142.891 64.6287C142.631 64.5464 142.623 64.5462 139.969 64.5462H137.308L137.299 66.4446C137.293 67.4888 137.297 68.3646 137.307 68.391C137.322 68.4299 137.806 68.4366 139.868 68.4266C142.341 68.4145 142.417 68.412 142.692 68.3346ZM151.07 74.9509C151.061 74.9255 151.057 72.1759 151.062 68.8408L151.072 62.7768L156.036 62.7674L161 62.758V64.5274L157.027 64.5368L153.054 64.5462V67.7901L156.826 67.7995L160.597 67.8089L160.588 68.6842L160.578 69.5596L156.816 69.578L153.054 69.5964V73.209L157.027 73.2184L161 73.2278V74.9969H156.044C152.113 74.9969 151.084 74.9874 151.07 74.9508V74.9509Z" fill="black"></path></g><defs><clipPath id="clip0_1836_868"><rect width="94" height="50" fill="white" transform="translate(67 25)"></rect></clipPath></defs></svg>