<svg xmlns="http://www.w3.org/2000/svg" width="227" height="100" viewBox="0 0 227 100" fill="none"><rect y="0.000488281" width="226.667" height="100" rx="14" fill="white"></rect><g clip-path="url(#clip0_3197_786)"><mask id="mask0_3197_786" style="mask-type:luminance" maskUnits="userSpaceOnUse" x="31" y="27" width="165" height="46"><path d="M31.0483 27.9971H195.961V72.0005H31.0483V27.9971Z" fill="white"></path></mask><g mask="url(#mask0_3197_786)"><path d="M160.69 49.0274V51.2054H162.229V53.3664C162.234 53.5595 162.223 53.7678 162.19 53.9344C162.129 54.3375 161.744 55.0238 160.652 55.0238C159.566 55.0238 159.188 54.3375 159.122 53.9344C159.095 53.7678 159.083 53.5595 159.083 53.3664V46.541C159.083 46.2995 159.1 46.0353 159.151 45.8353C159.226 45.4715 159.55 44.7541 160.643 44.7541C161.792 44.7541 162.078 45.5104 162.144 45.8353C162.187 46.0504 162.19 46.4113 162.19 46.4113V47.2401H165.97V46.7502C165.97 46.7502 165.987 46.2389 165.941 45.7618C165.657 42.9604 163.337 42.074 160.677 42.074C158.012 42.074 155.739 42.9686 155.407 45.7618C155.378 46.0173 155.332 46.4767 155.332 46.7502V53.0289C155.332 53.3024 155.341 53.5141 155.392 54.0138C155.638 56.7382 158.012 57.7039 160.666 57.7039C163.337 57.7039 165.694 56.7382 165.945 54.0138C165.989 53.5141 165.994 53.3024 166 53.0289V49.0274H160.69ZM134.624 42.4758H130.828V53.5239C130.834 53.7164 130.828 53.9327 130.795 54.0913C130.715 54.4622 130.4 55.1759 129.352 55.1759C128.318 55.1759 127.994 54.4622 127.921 54.0913C127.883 53.9327 127.878 53.7164 127.883 53.5239V42.4758H124.088V53.181C124.083 53.4569 124.105 54.0207 124.121 54.1684C124.383 56.958 126.593 57.8637 129.352 57.8637C132.117 57.8637 134.325 56.958 134.592 54.1684C134.613 54.0207 134.641 53.4569 134.624 53.181V42.4758ZM99.7432 42.4758L97.8495 54.1496L95.9569 42.4758H89.8332L89.5084 57.4099H93.26L93.3616 43.5849L95.9428 57.4099H99.7492L102.333 43.5849L102.435 57.4099H106.196L105.86 42.4758H99.7432ZM77.0703 42.4758L74.2898 57.4099H78.3446L80.4399 43.5849L82.4849 57.4099H86.5116L83.7426 42.4758H77.0703ZM147.892 54.4995L144.357 42.4758H138.786V57.2542H142.471L142.257 44.8458L146.054 57.2542H151.396V42.4758H147.687L147.892 54.4995ZM113.807 46.3624C113.74 46.0675 113.76 45.7542 113.794 45.5904C113.901 45.1123 114.224 44.5909 115.155 44.5909C116.021 44.5909 116.53 45.1286 116.53 45.9356V46.8487H120.23V45.8079C120.23 42.5901 117.331 42.0846 115.231 42.0846C112.587 42.0846 110.428 42.9517 110.034 45.3729C109.929 46.0318 109.904 46.6167 110.07 47.3631C110.713 50.382 115.995 51.2578 116.762 53.167C116.897 53.5286 116.858 53.9898 116.789 54.2616C116.675 54.7584 116.339 55.2582 115.343 55.2582C114.409 55.2582 113.846 54.7239 113.846 53.9187L113.845 52.4855H109.862V53.6247C109.862 56.9259 112.461 57.922 115.26 57.922C117.941 57.922 120.155 57.0105 120.511 54.5398C120.68 53.2632 120.552 52.4318 120.484 52.1186C119.863 49.0222 114.233 48.0908 113.807 46.3624ZM64.9898 46.3258C64.9172 46.0247 64.9341 45.707 64.9746 45.5413C65.0771 45.0655 65.4019 44.5349 66.3485 44.5349C67.2264 44.5349 67.7434 45.0778 67.7434 45.8913V46.8156H71.4875V45.7664C71.4875 42.5178 68.5435 42 66.4212 42C63.7549 42 61.5763 42.8806 61.1777 45.3192C61.0686 45.9887 61.0499 46.5776 61.2076 47.3322C61.8575 50.3854 67.1923 51.2683 67.9685 53.2003C68.1138 53.5595 68.0699 54.0207 67.9978 54.303C67.8746 54.805 67.536 55.3119 66.5318 55.3119C65.5941 55.3119 65.0332 54.7684 65.0332 53.9521L65.028 52.515H61V53.6569C61 56.9959 63.6358 58 66.4568 58C69.1689 58 71.3961 57.0805 71.7594 54.5812C71.94 53.293 71.8045 52.4546 71.7436 52.1366C71.1101 49.0023 65.4171 48.0739 64.9898 46.3258Z" fill="#252525"></path></g></g><defs><clipPath id="clip0_3197_786"><rect width="143" height="22" fill="white" transform="translate(42 39)"></rect></clipPath></defs></svg>