<svg xmlns="http://www.w3.org/2000/svg" width="227" height="100" viewBox="0 0 227 100" fill="none"><g clip-path="url(#clip0_1888_959)"><rect x="0.333008" y="0.000488281" width="226.667" height="100" rx="14" fill="white"></rect><path fill-rule="evenodd" clip-rule="evenodd" d="M57.8101 47.7371C56.6236 47.7371 55.6745 46.7844 55.6745 45.5935C55.6745 44.4026 56.6236 43.4499 57.8101 43.4499C58.9016 43.4499 59.8508 44.3073 59.9457 45.403C59.8508 41.2586 56.3864 37.9717 52.2575 38.067C49.0304 38.1622 46.183 40.3535 45.2338 43.4499C45.1389 43.4499 45.044 43.4499 44.9491 43.4499C43.7626 43.4499 42.8135 44.4026 42.8135 45.5935C42.8135 46.7844 43.7626 47.7371 44.9491 47.7371C45.044 47.7371 45.1389 47.7371 45.2338 47.7371C46.183 50.9288 49.1253 53.1201 52.4474 53.1201C56.5762 53.1677 59.8982 49.8331 59.9457 45.6888C59.8982 46.8797 58.9491 47.7371 57.8101 47.7371ZM51.4033 47.7371C50.2169 47.7371 49.2677 46.7844 49.2677 45.5935C49.2677 44.4026 50.2169 43.4499 51.4033 43.4499C52.5897 43.4499 53.5389 44.4026 53.5389 45.5935C53.5389 46.7844 52.5897 47.7371 51.4033 47.7371Z" fill="#B8B8B8"></path><path d="M64.2645 43.4976C63.0781 43.4976 62.1289 44.4503 62.1289 45.6412C62.1289 46.8321 63.0781 47.7848 64.2645 47.7848C65.4509 47.7848 66.4001 46.8321 66.4001 45.6412C66.4001 44.4027 65.4509 43.4499 64.2645 43.4976Z" fill="#4F4F4F"></path><path d="M70.7186 43.4976C69.5322 43.4976 68.583 44.4503 68.583 45.6412C68.583 46.8321 69.5322 47.7848 70.7186 47.7848C71.905 47.7848 72.8542 46.8321 72.8542 45.6412C72.8542 44.4027 71.905 43.4499 70.7186 43.4976Z" fill="#4F4F4F"></path><path d="M77.7899 52.6912H80.3526V36.4949H87.4712V34.113H71.6204L69.7695 36.4949H77.7899V52.6912Z" fill="#4F4F4F"></path><path d="M91.7421 38.0669C87.5658 38.0669 84.1963 41.4491 84.1963 45.5934C84.1963 49.7854 87.5658 53.1676 91.6946 53.1676C95.8234 53.1676 99.1929 49.7854 99.2404 45.6411C99.2878 41.4967 95.9658 38.1145 91.7895 38.0669H91.7421ZM91.7421 50.9287C88.7522 50.9287 86.6641 48.5469 86.6641 45.6411C86.6641 42.7353 88.7522 40.3534 91.7421 40.3534C94.7319 40.3534 96.82 42.7353 96.82 45.6411C96.82 48.5469 94.7319 50.9287 91.7421 50.9287Z" fill="#4F4F4F"></path><path d="M170.949 45.1171L176.17 38.4004H173.132L169.383 43.2593L165.634 38.4004H162.692L167.865 45.1171L161.79 52.6913H164.827L169.383 46.8797L173.939 52.6913H176.882L170.949 45.1171Z" fill="#4F4F4F"></path><path d="M111.2 40.6869C111.579 40.02 112.054 39.4007 112.623 38.8767C108.922 37.0189 104.366 38.4956 102.515 42.2113C101.993 43.2593 101.708 44.4025 101.708 45.5935V52.6913H104.128V45.5935C104.128 42.6876 106.216 40.3058 109.206 40.3058C109.918 40.3058 110.583 40.4487 111.2 40.6869Z" fill="#4F4F4F"></path><path d="M119.79 53.1676C121.688 53.1676 123.492 52.5007 124.868 51.2145V52.6913H127.288V45.6411C127.288 41.4967 123.966 38.0669 119.79 38.0669C115.661 38.0669 112.244 41.4014 112.244 45.5934C112.244 49.7378 115.614 53.12 119.79 53.1676ZM119.79 40.3058C122.78 40.3058 124.868 42.6876 124.868 45.6411C124.868 48.5945 122.78 50.9287 119.79 50.9287C116.8 50.9287 114.712 48.5469 114.712 45.6411C114.712 42.7353 116.8 40.3058 119.79 40.3058Z" fill="#4F4F4F"></path><path d="M144.42 45.5457V34.1606H142V40.0676C138.915 37.257 134.169 37.4476 131.369 40.4963C128.569 43.5926 128.759 48.3563 131.796 51.1668C134.881 53.9774 139.627 53.7868 142.427 50.7381C143.708 49.3566 144.42 47.5465 144.42 45.641V45.5457ZM136.874 50.9286C133.837 50.9286 131.796 48.5468 131.796 45.641C131.796 42.7352 133.884 40.3534 136.874 40.3534C139.864 40.3534 141.952 42.7352 141.952 45.641C141.952 48.5468 139.912 50.9286 136.874 50.9286Z" fill="#4F4F4F"></path><path d="M158.183 49.309C156.285 51.3574 153.058 51.4527 151.017 49.5472C150.258 48.8327 149.736 47.8799 149.498 46.8319H161.885C161.932 46.4508 161.98 46.0697 161.98 45.641C161.98 41.4967 158.658 38.1621 154.529 38.1621C150.4 38.1621 147.078 41.4967 147.078 45.641C147.078 49.7854 150.4 53.1199 154.529 53.1199C157.234 53.1199 159.749 51.6432 161.031 49.309H158.183ZM154.434 40.3534C156.854 40.3057 158.943 42.0207 159.37 44.4025H149.451C149.926 42.0207 152.014 40.3057 154.434 40.3534Z" fill="#4F4F4F"></path><path d="M80.7801 59.1222C80.4479 58.9317 80.0682 58.8364 79.6411 58.8364C79.119 58.7888 78.6445 59.1699 78.597 59.6939C78.597 59.7415 78.597 59.7892 78.597 59.7892C78.597 60.2179 78.7868 60.5037 79.6885 61.0277C80.7326 61.5993 81.0648 62.171 81.0648 62.9332C81.1123 63.9335 80.4004 64.7433 79.4038 64.791C79.3089 64.791 79.2614 64.791 79.1665 64.791C78.6919 64.791 78.2173 64.6957 77.7902 64.5052V63.6477C78.1699 63.8859 78.597 64.0288 79.0241 64.0764C79.5936 64.1241 80.1631 63.6953 80.2106 63.0761V63.0284C80.2106 62.5044 80.0682 62.2186 79.1665 61.6946C77.9801 60.9801 77.6953 60.5513 77.6953 59.6939C77.6953 58.5982 78.5496 58.0266 79.4987 58.0266C79.9258 58.0266 80.3055 58.1219 80.6851 58.2172L80.7801 59.1222Z" fill="#4F4F4F"></path><path d="M86.7116 64.791H85.8099L84.8133 60.6943L83.9116 64.791H83.0099L81.7285 59.9797H82.5828L83.4844 64.0288L84.3861 59.9797H85.3353L86.2844 64.0288L87.1861 59.9797H87.9929L86.7116 64.791Z" fill="#4F4F4F"></path><path d="M89.5593 57.979V58.9317H88.7051V57.979H89.5593ZM88.7525 59.9797H89.5593V64.791H88.7525V59.9797Z" fill="#4F4F4F"></path><path d="M90.6031 63.8381C90.9353 64.0763 91.315 64.1716 91.7421 64.2192C92.3591 64.2192 92.6438 63.8857 92.6438 63.5523C92.6438 63.2188 92.5014 62.9806 92.0268 62.7901L91.5048 62.5519C90.8404 62.2185 90.5557 61.9326 90.5557 61.3134C90.5557 60.5036 91.2201 59.8843 91.9794 59.8843C92.0269 59.8843 92.0269 59.8843 92.0743 59.8843C92.4065 59.8843 92.7862 59.9319 93.0709 60.0748V60.7417C92.7862 60.5988 92.454 60.5512 92.1218 60.5512C91.5997 60.5512 91.315 60.837 91.315 61.2181C91.315 61.5992 91.5997 61.8374 92.1218 62.0279L92.4065 62.1232C92.976 62.2661 93.3557 62.7901 93.3557 63.3617C93.4031 64.1239 92.8811 64.7908 92.1218 64.8861C92.0268 64.8861 91.9319 64.8861 91.837 64.8861C91.4099 64.8861 90.9353 64.7908 90.5557 64.6003L90.6031 63.8381Z" fill="#4F4F4F"></path><path d="M94.1623 63.8381C94.4945 64.0763 94.8742 64.1716 95.3013 64.2192C95.9182 64.2192 96.203 63.8857 96.203 63.5523C96.203 63.2188 96.0131 62.9806 95.586 62.7901L95.064 62.5519C94.3996 62.2185 94.1148 61.9326 94.1148 61.3134C94.1148 60.5036 94.7793 59.8843 95.5386 59.8843C95.586 59.8843 95.586 59.8843 95.6335 59.8843C95.9657 59.8843 96.3453 59.9319 96.6301 60.0748L96.5826 60.7417C96.2979 60.5988 95.9657 60.5512 95.6335 60.5512C95.1115 60.5512 94.8267 60.837 94.8267 61.2181C94.8267 61.5992 95.1115 61.8374 95.6335 62.0279L95.9182 62.1232C96.4877 62.2661 96.8674 62.7901 96.8674 63.3617C96.9148 64.1239 96.3928 64.7908 95.6335 64.8861C95.5386 64.8861 95.4437 64.8861 95.3487 64.8861C94.9216 64.8861 94.447 64.7908 94.0674 64.6003L94.1623 63.8381Z" fill="#4F4F4F"></path><path d="M97.6748 63.6953H98.5765V64.7433H97.6748V63.6953Z" fill="#4F4F4F"></path><path d="M101.993 58.1694H105.03V58.884H102.8V60.98H104.936V61.6945H102.8V64.0763H105.173V64.7909H101.993V58.1694Z" fill="#4F4F4F"></path><path d="M106.265 60.9801C106.265 60.6467 106.217 60.2656 106.217 59.9321H106.977L107.024 60.6467C107.309 59.9798 108.021 59.6939 108.685 59.9797C108.97 60.1227 109.207 60.3608 109.35 60.6467C109.539 60.1703 110.014 59.8845 110.536 59.8845C111.39 59.8845 111.912 60.3608 111.912 61.4088V64.7434H111.106V61.4088C111.106 60.7896 110.821 60.5037 110.346 60.5037C109.777 60.5037 109.444 60.8848 109.444 61.7423V64.7434H108.638V61.4088C108.638 60.7896 108.353 60.5037 107.878 60.5037C107.309 60.5037 106.977 60.8848 106.977 61.7423V64.7434H106.17L106.265 60.9801Z" fill="#4F4F4F"></path><path d="M113.05 57.6931H113.857V60.6466C114.094 60.1702 114.569 59.8844 115.091 59.932C116.088 59.932 116.752 60.7418 116.752 62.4091C116.752 64.0764 116.088 64.8862 115.091 64.8862C114.569 64.8862 114.047 64.6004 113.857 64.124L113.81 64.8386H113.003C113.003 64.5528 113.05 64.2669 113.05 63.9335V57.6931ZM114.901 64.2193C115.613 64.2193 115.945 63.6 115.945 62.3615C115.945 61.1706 115.613 60.5037 114.901 60.5037C114.189 60.5037 113.857 61.1229 113.857 62.3615C113.857 63.5524 114.142 64.2193 114.901 64.2193Z" fill="#4F4F4F"></path><path d="M118.319 62.5995C118.319 63.6952 118.746 64.2192 119.647 64.2192C120.027 64.2192 120.407 64.0763 120.739 63.8381L120.786 64.5526C120.359 64.7432 119.885 64.8385 119.457 64.8385C118.176 64.8385 117.512 63.8857 117.512 62.3614C117.512 60.837 118.176 59.8843 119.363 59.8843C120.454 59.8843 121.071 60.7417 121.071 62.1708V62.5995H118.319ZM120.217 61.9803C120.217 60.9799 119.885 60.4559 119.268 60.4559C118.746 60.4559 118.319 60.837 118.271 61.9803H120.217Z" fill="#4F4F4F"></path><path d="M125.39 63.8859C125.39 64.1717 125.438 64.4575 125.438 64.791H124.678L124.631 64.0764C124.394 64.5528 123.919 64.8862 123.349 64.8386C122.353 64.8386 121.688 64.0288 121.688 62.3615C121.688 60.6942 122.353 59.8844 123.349 59.8844C123.872 59.8844 124.346 60.1702 124.583 60.599V57.6455H125.343V63.8859H125.39ZM123.539 60.5513C122.827 60.5513 122.495 61.1706 122.495 62.3615C122.495 63.5524 122.827 64.2193 123.539 64.2193C124.251 64.2193 124.583 63.6001 124.583 62.3615C124.583 61.1706 124.299 60.5513 123.539 60.5513Z" fill="#4F4F4F"></path><path d="M129.994 63.8859C129.994 64.1717 130.041 64.4575 130.041 64.791H129.282L129.234 64.0764C128.997 64.5528 128.523 64.8862 127.953 64.8386C126.956 64.8386 126.292 64.0288 126.292 62.3615C126.292 60.6942 126.956 59.8844 127.953 59.8844C128.475 59.8844 128.95 60.1702 129.187 60.599V57.6455H129.994V63.8859ZM128.143 60.5513C127.431 60.5513 127.099 61.1706 127.099 62.3615C127.099 63.5524 127.431 64.2193 128.143 64.2193C128.855 64.2193 129.187 63.6001 129.187 62.3615C129.187 61.123 128.855 60.5513 128.143 60.5513Z" fill="#4F4F4F"></path><path d="M131.701 62.5995C131.701 63.6952 132.128 64.2192 133.03 64.2192C133.41 64.2192 133.789 64.0763 134.122 63.8381L134.169 64.5526C133.742 64.7432 133.267 64.8385 132.84 64.8385C131.559 64.8385 130.895 63.8857 130.895 62.3614C130.895 60.837 131.559 59.8843 132.745 59.8843C133.837 59.8843 134.454 60.7417 134.454 62.1708V62.5995H131.701ZM133.6 61.9803C133.6 60.9799 133.267 60.4559 132.65 60.4559C132.128 60.4559 131.701 60.837 131.654 61.9803H133.6Z" fill="#4F4F4F"></path><path d="M138.82 63.8859C138.82 64.1717 138.867 64.4575 138.867 64.791H138.108L138.061 64.0764C137.823 64.5528 137.301 64.8862 136.779 64.8386C135.783 64.8386 135.118 64.0288 135.118 62.3615C135.118 60.6942 135.783 59.8844 136.779 59.8844C137.301 59.8844 137.776 60.1702 138.013 60.599V57.6455H138.82V63.8859ZM136.969 60.5513C136.257 60.5513 135.925 61.1706 135.925 62.3615C135.925 63.5524 136.257 64.2193 136.969 64.2193C137.681 64.2193 138.013 63.6001 138.013 62.3615C138.013 61.1706 137.681 60.5513 136.969 60.5513Z" fill="#4F4F4F"></path><path d="M140.055 63.6953H140.956V64.7433H140.055V63.6953Z" fill="#4F4F4F"></path><path d="M148.265 64.648C147.885 64.7909 147.458 64.8386 147.078 64.8386C144.99 64.8386 144.136 63.2666 144.136 61.4564C144.136 59.408 145.322 58.0742 147.031 58.0742C147.458 58.0742 147.885 58.1219 148.265 58.3124V59.1222C147.885 58.884 147.458 58.7888 147.031 58.7888C145.939 58.7888 144.99 59.6462 144.99 61.2659C144.99 62.9808 145.654 64.0764 147.078 64.0764C147.505 64.0764 147.885 63.9811 148.265 63.743V64.648Z" fill="#4F4F4F"></path><path d="M151.064 59.8843C152.345 59.8843 153.01 60.837 153.01 62.3614C153.01 63.8857 152.345 64.8385 151.064 64.8385C149.783 64.8385 149.118 63.8857 149.118 62.3614C149.118 60.837 149.783 59.8843 151.064 59.8843ZM151.064 64.2192C151.823 64.2192 152.155 63.5999 152.155 62.3614C152.155 61.1705 151.823 60.5036 151.064 60.5036C150.305 60.5036 149.972 61.1228 149.972 62.3614C149.972 63.5523 150.305 64.2192 151.064 64.2192Z" fill="#4F4F4F"></path><path d="M153.959 60.9801C153.959 60.6467 153.912 60.2656 153.912 59.9321H154.671L154.718 60.6467C155.003 59.9798 155.715 59.6939 156.38 59.9797C156.664 60.1227 156.902 60.3608 157.044 60.6467C157.234 60.1703 157.708 59.8845 158.23 59.8845C159.085 59.8845 159.607 60.3608 159.607 61.4088V64.7434H158.8V61.4088C158.8 60.7896 158.515 60.5037 158.041 60.5037C157.471 60.5037 157.139 60.8848 157.139 61.7423V64.7434H156.332V61.4088C156.332 60.7896 156.047 60.5037 155.573 60.5037C155.003 60.5037 154.671 60.8848 154.671 61.7423V64.7434H153.864L153.959 60.9801Z" fill="#4F4F4F"></path><path d="M160.746 60.8371C160.746 60.5513 160.698 60.2655 160.698 59.932H161.458L161.505 60.6466C161.742 60.1702 162.217 59.8368 162.786 59.8844C163.783 59.8844 164.447 60.6942 164.447 62.3615C164.447 64.0288 163.783 64.8386 162.786 64.8386C162.264 64.8386 161.79 64.5528 161.552 64.124V66.8393H160.746V60.8371ZM162.597 64.2193C163.308 64.2193 163.641 63.6 163.641 62.3615C163.641 61.1706 163.308 60.5037 162.597 60.5037C161.885 60.5037 161.552 61.123 161.552 62.3615C161.505 63.5524 161.837 64.2193 162.597 64.2193Z" fill="#4F4F4F"></path><path d="M168.813 63.743C168.813 64.0765 168.813 64.4576 168.861 64.791H168.102L168.054 64.0765C167.864 64.5528 167.39 64.8863 166.82 64.8387C165.966 64.8387 165.396 64.3623 165.396 63.3143V59.9797H166.203V63.0761C166.203 63.8383 166.488 64.1717 167.01 64.1717C167.627 64.1717 168.007 63.743 168.007 62.8856V59.9797H168.813V63.743Z" fill="#4F4F4F"></path><path d="M172.135 64.7434C171.898 64.8386 171.708 64.8386 171.471 64.8863C170.759 64.8863 170.379 64.6005 170.379 63.743V60.6466H169.62V60.0274H170.379V59.027L171.186 58.7888V60.0274H172.183V60.6466H171.186V63.5048C171.186 64.0765 171.329 64.267 171.661 64.267C171.803 64.267 171.993 64.2194 172.135 64.1241V64.7434Z" fill="#4F4F4F"></path><path d="M173.749 57.979V58.9317H172.895V57.979H173.749ZM172.895 59.9797H173.701V64.791H172.895V59.9797Z" fill="#4F4F4F"></path><path d="M174.983 60.9799C174.983 60.6465 174.936 60.2654 174.936 59.9319H175.695L175.742 60.6465C175.932 60.1701 176.407 59.8367 176.976 59.8367C177.83 59.8367 178.4 60.313 178.4 61.361V64.6956H177.593V61.5992C177.593 60.837 177.308 60.5036 176.786 60.5036C176.169 60.5036 175.79 60.9323 175.79 61.7898V64.6956H174.983V60.9799Z" fill="#4F4F4F"></path><path d="M183.051 64.9814C183.051 66.3152 182.055 66.8868 181.011 66.8868C180.536 66.8868 180.061 66.7916 179.587 66.601L179.634 65.7912C180.014 66.0294 180.489 66.1723 180.963 66.2199C181.912 66.2199 182.292 65.6483 182.292 64.7908V64.0286C182.055 64.505 181.58 64.8385 181.011 64.8385C180.014 64.8385 179.35 64.0286 179.35 62.3614C179.35 60.6941 180.014 59.8843 181.106 59.8843C181.628 59.9319 182.055 60.2177 182.292 60.6465L182.339 59.9319H183.099C183.099 60.2177 183.051 60.5036 183.051 60.7894V64.9814ZM181.2 64.2192C181.912 64.2192 182.245 63.5999 182.245 62.3614C182.245 61.1228 181.912 60.5036 181.2 60.5036C180.489 60.5036 180.156 61.1228 180.156 62.3614C180.156 63.5999 180.489 64.2192 181.2 64.2192Z" fill="#4F4F4F"></path><path d="M184.285 63.6953H185.187V64.7433H184.285V63.6953Z" fill="#4F4F4F"></path></g><defs><clipPath id="clip0_1888_959"><rect x="0.333008" y="0.000488281" width="226.667" height="100" rx="14" fill="white"></rect></clipPath></defs></svg>